<svg width="48" height="50" viewBox="0 0 48 50" fill="none" xmlns="http://www.w3.org/2000/svg">
<path d="M24.4912 0C25.305 0.130208 26.1227 0.253907 26.93 0.415365C27.0928 0.447917 27.3207 0.619791 27.3532 0.764323C27.9352 3.36849 28.0381 5.97266 27.2035 8.54558C26.2842 11.3763 24.2191 12.8932 21.3754 13.4401C19.2306 13.842 17.0248 13.7816 14.9053 13.263C14.7686 13.2305 14.5772 13.0925 14.5511 12.9727C13.9326 10.2018 13.8233 7.4375 14.8454 4.73438C15.8871 1.97526 18.0719 0.669271 20.861 0.192708C21.2581 0.123697 21.6566 0.0625 22.055 0H24.4912ZM17.1162 10.6849C18.5094 10.8399 19.8506 10.8229 21.1722 10.4987C22.2517 10.2383 23.2438 9.78126 23.8584 8.79688C24.9769 7.00521 24.9652 5.02865 24.7894 3.00651C23.2647 2.85677 21.8181 2.88542 20.3884 3.29297C18.8363 3.73568 17.838 4.7257 17.3936 6.26303C16.9782 7.70053 16.9287 9.16667 17.1162 10.6849Z" fill="#00CD69"/>
<path d="M29.7904 50C28.0053 49.8698 26.4767 49.2096 25.0795 48.2018C23.4207 46.9942 22.0145 45.4734 20.9402 43.7253C20.8634 43.6042 20.8217 43.3672 20.8881 43.263C22.4168 40.8698 24.2957 38.8359 26.9298 37.6393C29.3608 36.5378 31.685 36.9297 33.8738 38.3307C35.8347 39.5872 37.362 41.2773 38.6003 43.2357C38.6329 43.2933 38.652 43.3575 38.6563 43.4236C38.6606 43.4897 38.6499 43.5558 38.6251 43.6172C37.0118 46.1159 35.0574 48.2552 32.2266 49.388C31.4558 49.6953 30.6042 49.8021 29.7904 50ZM35.1941 43.4648C34.1811 42.2344 33.1108 41.1849 31.7436 40.47C30.9493 40.056 30.1016 39.806 29.2084 39.9818C27.0691 40.4036 25.6603 41.8672 24.3061 43.4388C25.3165 44.6602 26.3894 45.7174 27.7527 46.4206C28.5756 46.8438 29.4454 47.0951 30.3803 46.8945C32.461 46.4518 33.8308 45.0065 35.1954 43.4648H35.1941Z" fill="#377BE1"/>
<path d="M29.3545 12.2277C30.9378 9.77332 32.822 7.65743 35.5251 6.43608C38.1944 5.23165 40.6605 5.81498 42.9548 7.43868C44.649 8.65589 46.0836 10.1985 47.1748 11.9764C47.2149 12.0462 47.2387 12.1242 47.2443 12.2045C47.2499 12.2848 47.2373 12.3653 47.2074 12.44C45.7568 14.7225 43.9678 16.6705 41.5134 17.8957C38.6644 19.3163 36.0329 18.7134 33.5707 16.9074C31.8636 15.6509 30.4925 14.0806 29.3545 12.2277ZM32.917 12.2408C33.9339 13.4725 35.0303 14.5415 36.4326 15.2538C37.5303 15.8111 38.6592 15.9296 39.818 15.4543C41.46 14.7811 42.6683 13.5754 43.7907 12.2408C42.8792 11.1275 41.8845 10.1574 40.6657 9.43348C39.1865 8.55457 37.6983 8.49728 36.1866 9.35275C34.9079 10.0754 33.8779 11.0728 32.917 12.2408Z" fill="#377BE1"/>
<path d="M0 17.6054C0.139323 16.5312 0.295588 15.3762 0.438817 14.22C0.486995 13.8385 0.647155 13.6588 1.06122 13.5768C3.25262 13.1445 5.44142 13.0468 7.63413 13.5273C11.0078 14.2682 13.043 16.4778 13.5768 19.9075C13.8896 21.95 13.815 24.0332 13.3568 26.0481C13.3229 26.2031 13.1719 26.4244 13.0391 26.4531C10.4675 27.0208 7.89193 27.1353 5.34245 26.3424C2.45834 25.4465 0.893241 23.3853 0.337251 20.4999C0.160168 19.5846 0.115885 18.6379 0 17.6054ZM10.7617 23.9036C10.9193 22.3971 10.8919 20.9804 10.5013 19.5833C10.0495 17.914 8.9831 16.8853 7.31122 16.4478C6.00914 16.1054 4.68099 16.0872 3.35026 16.1952C3.27847 16.2187 3.21394 16.2603 3.16286 16.3159C3.11178 16.3716 3.07586 16.4394 3.05859 16.5129C3.07292 17.6132 3.02867 18.7265 3.17971 19.8085C3.38284 21.2512 3.987 22.5208 5.39325 23.2187C7.08596 24.0611 8.89325 24.0494 10.7617 23.9036Z" fill="#377BE1"/>
<path d="M42.3646 20.8308C43.4414 20.9832 44.6602 21.1472 45.8802 21.3373C45.9582 21.355 46.031 21.3904 46.0931 21.4407C46.1552 21.4911 46.2049 21.5551 46.2383 21.6277C46.8555 24.3621 46.9596 27.0964 45.9779 29.7787C44.9649 32.5496 42.8138 33.9063 40.0182 34.3933C37.9622 34.7343 35.8589 34.663 33.8307 34.1837C33.7451 34.1625 33.6654 34.122 33.5977 34.0654C33.53 34.0087 33.4761 33.9374 33.4401 33.8569C32.8398 31.2188 32.7422 28.5808 33.6094 25.9792C34.5469 23.1694 36.6276 21.6902 39.4492 21.1615C40.3555 20.9897 41.2839 20.9493 42.3646 20.8308ZM43.6667 23.9063C42.0456 23.7839 40.4687 23.7644 38.9323 24.3152C37.8203 24.7136 36.9922 25.4128 36.5312 26.5118C35.8477 28.1446 35.8034 29.8451 36.0026 31.5977C37.3659 31.7279 38.6862 31.7149 40 31.4207C41.9531 30.9845 43.1081 29.7931 43.5156 27.8425C43.7899 26.5487 43.8415 25.2175 43.668 23.9063H43.6667Z" fill="#00CD69"/>
<path d="M23.0713 16.1641C25.057 17.3932 26.7614 18.8984 28.057 20.832C29.9828 23.7057 29.9841 26.5977 28.057 29.4727C26.8174 31.3203 25.2029 32.7865 23.3279 33.9687C23.25 34.0089 23.164 34.0307 23.0765 34.0325C22.9889 34.0343 22.9021 34.0161 22.8226 33.9792C20.945 32.8008 19.3279 31.3372 18.0844 29.4922C16.1521 26.6276 16.1312 23.7318 18.0583 20.8542C19.363 18.8984 21.0752 17.3828 23.0713 16.1641ZM23.0713 30.5911C24.35 29.5182 25.4854 28.3776 26.1807 26.8568C26.5805 25.9857 26.712 25.0794 26.432 24.1549C25.8617 22.2708 24.5336 20.9583 23.0726 19.7161C21.8461 20.7266 20.7862 21.8086 20.0778 23.1914C19.488 24.3359 19.3747 25.5052 19.8943 26.707C20.5753 28.2995 21.7523 29.4883 23.07 30.5872L23.0713 30.5911Z" fill="#377BE1"/>
<path d="M7.80755 31.1082C8.94427 31.2735 10.1031 31.3516 11.2151 31.6212C14.4235 32.4024 16.1943 34.5574 16.7789 37.741C17.1695 39.8751 17.0628 42.0066 16.5823 44.1212C16.5593 44.1986 16.5192 44.2699 16.4648 44.3296C16.4105 44.3893 16.3434 44.436 16.2685 44.4662C13.5445 45.073 10.8245 45.1759 8.15914 44.2058C5.43257 43.2162 4.04323 41.116 3.54323 38.3582C3.17318 36.2571 3.24145 34.1022 3.74375 32.0287C3.77432 31.9392 3.82565 31.8582 3.89354 31.7924C3.96144 31.7265 4.04397 31.6776 4.13438 31.6498C5.34271 31.4493 6.56276 31.2865 7.80755 31.1082ZM6.30885 34.2332C6.19166 35.8269 6.17085 37.3764 6.68647 38.8816C7.0172 39.8477 7.56406 40.6589 8.48984 41.1485C10.2294 42.0678 12.0888 42.0899 14.0198 41.9011C14.1123 40.5105 14.1305 39.1746 13.818 37.8464C13.3662 35.9181 12.1747 34.7839 10.2463 34.379C8.95145 34.109 7.62029 34.0592 6.30885 34.2319V34.2332Z" fill="#00CD69"/>
</svg>
