<svg width="50" height="50" viewBox="0 0 50 50" fill="none" xmlns="http://www.w3.org/2000/svg">
<path d="M36.0077 49.9987C35.6621 49.9191 35.3139 49.8474 34.9708 49.7561C33.3903 49.3435 31.9921 48.4165 30.9969 47.1213C30.0016 45.8261 29.4659 44.2364 29.4742 42.603C29.4625 37.4442 29.4742 32.2855 29.4742 27.1268V26.4889H26.5681V23.5372H35.3256V11.7875C35.1325 11.7797 34.946 11.7679 34.7582 11.7627C33.7995 11.7314 32.8225 11.8123 31.8886 11.6518C28.972 11.1601 26.8655 8.9753 26.6046 6.00005C26.4312 4.03308 26.572 2.04002 26.572 0H27.7329C29.0673 0 30.4016 0 31.7373 0C35.4612 0.00782616 38.2434 2.74959 38.3086 6.48006C38.3191 7.07615 38.3086 7.67354 38.3086 8.25007C38.3856 8.27225 38.4065 8.28529 38.4156 8.27877C39.9378 7.36572 41.6139 7.29397 43.3213 7.33571C44.5709 7.36571 45.8205 7.33571 47.104 7.33571C47.1157 7.53528 47.1314 7.6918 47.1314 7.84963C47.1314 9.42791 47.1314 11.0062 47.1314 12.5845C47.117 16.2784 44.2878 19.1063 40.6017 19.1167H38.3439V23.5254H47.1131V26.4433H44.2004V27.0733C44.2004 32.232 44.2083 37.3908 44.2004 42.5495C44.1939 45.9982 41.983 48.8769 38.7091 49.7561C38.3673 49.8474 38.0204 49.9191 37.6747 50L36.0077 49.9987ZM38.3139 38.1995H35.3556V35.322H32.4743C32.4469 35.386 32.4234 35.4147 32.4234 35.4434C32.4234 37.9308 32.336 40.4221 32.4521 42.9043C32.5825 45.5939 34.9538 47.4095 37.5691 46.9843C39.7265 46.6348 41.2317 44.8139 41.2487 42.4921C41.2643 40.2317 41.2487 37.9712 41.2487 35.7094C41.2487 35.579 41.2265 35.4603 41.2135 35.3286H38.31L38.3139 38.1995ZM44.1639 10.3266C43.2104 10.3266 42.2974 10.2627 41.3974 10.3397C40.5873 10.4109 39.8304 10.7732 39.2669 11.3596C38.7033 11.9459 38.3713 12.7165 38.3321 13.5288C38.2878 14.2893 38.3204 15.0562 38.3048 15.8193C38.3048 16.0801 38.3856 16.1975 38.6673 16.191C39.3665 16.1741 40.0669 16.2106 40.7648 16.1754C42.6013 16.0814 43.9487 14.8827 44.147 13.0788C44.2448 12.1827 44.1639 11.2671 44.1639 10.3266ZM29.5342 3.03394C29.5342 3.96003 29.4442 4.93961 29.5551 5.8944C29.6277 6.5983 29.9321 7.2581 30.4207 7.77002C30.9092 8.28193 31.5541 8.61691 32.2538 8.72225C33.2504 8.86573 34.2834 8.74964 35.34 8.74964C35.34 7.88615 35.3752 7.01224 35.3321 6.14092C35.2591 4.65265 34.1386 3.27133 32.6699 3.06263C31.6421 2.91524 30.5764 3.03394 29.5342 3.03394ZM32.4481 26.4954V32.3025H35.3321V26.4954H32.4481ZM41.2135 32.3181V26.4954H38.3439V32.3181H41.2135Z" fill="#377BE1"/>
<path d="M12.4682 49.9988C12.1238 49.9179 11.7769 49.8462 11.4338 49.7549C9.86278 49.3423 8.47237 48.4216 7.47931 47.1362C6.48626 45.8508 5.94638 44.273 5.94379 42.6487C5.92553 39.9096 5.94379 37.1808 5.94379 34.4469V33.8286H3.0429V30.8847H11.7977V20.5933C10.9995 20.5933 10.2077 20.6103 9.41598 20.5933C7.18292 20.5346 5.40767 19.5968 4.12157 17.7681C3.42564 16.7937 3.04136 15.6313 3.0194 14.4341C2.98418 12.6459 3.00768 10.855 3.00768 9.06539C3.01177 9.0061 3.02049 8.94723 3.03376 8.8893C3.0768 8.86452 3.1042 8.83452 3.13159 8.83452C5.03465 8.83452 6.94684 8.72886 8.83946 8.87625C12.3351 9.14626 14.743 11.8515 14.7808 15.3576C14.7808 15.9394 14.7808 16.5224 14.7808 17.1263C15.3352 16.8968 15.8243 16.6294 16.3461 16.4911C16.9558 16.323 17.5831 16.2267 18.2152 16.2041C19.9865 16.1663 21.7591 16.1898 23.5096 16.1898C23.55 16.2472 23.5852 16.2733 23.5852 16.2994C23.5644 18.3642 23.6792 20.442 23.4835 22.4899C23.1965 25.4977 20.4378 27.8677 17.4078 27.9329C16.5495 27.9512 15.6913 27.9329 14.8069 27.9329V30.856H23.5617V33.7986H20.6622V34.4013C20.6622 37.0526 20.6622 39.7048 20.6622 42.3578C20.6622 46.3192 18.1969 49.2475 14.3034 49.9231C14.2426 49.9415 14.1841 49.9665 14.1286 49.9975L12.4682 49.9988ZM17.64 39.757H14.7573V42.6344H11.8303V39.7557H8.94121C8.94121 40.9491 8.85511 42.1035 8.95945 43.25C9.1538 45.367 11.0699 47.0235 13.2299 47.0601C15.3652 47.0953 17.3648 45.5196 17.6139 43.4405C17.7574 42.2418 17.64 41.0118 17.64 39.757ZM11.8095 17.7002C11.8095 16.735 11.8603 15.8598 11.7977 14.9924C11.6921 13.5015 10.8847 12.4711 9.48773 11.9728C8.34511 11.5658 7.1477 11.8202 5.95812 11.7589C5.95812 12.7137 5.89814 13.5941 5.97248 14.4641C6.10292 16.0163 7.19465 17.305 8.65944 17.5398C9.67424 17.7029 10.723 17.6533 11.8095 17.7002ZM20.7078 19.135C19.77 19.135 18.9287 19.0998 18.09 19.1429C16.616 19.2185 15.5739 19.9777 15.0273 21.3329C14.5525 22.5068 14.8487 23.7564 14.7808 24.9851C15.7356 24.9851 16.6148 25.032 17.4861 24.9747C18.9613 24.8781 20.3022 23.759 20.5369 22.3203C20.7052 21.2938 20.657 20.2294 20.7078 19.1324V19.135ZM11.8251 36.7256C11.8251 35.823 11.833 34.9491 11.8147 34.0765C11.7991 34.0151 11.7678 33.9587 11.7239 33.913C11.68 33.8673 11.625 33.8337 11.5643 33.8156C10.6903 33.796 9.81641 33.8039 8.92032 33.8039V36.7256H11.8251ZM17.6882 36.7256V33.856H14.8186V36.7256H17.6882Z" fill="#00CD69"/>
</svg>
