<svg width="50" height="49" viewBox="0 0 50 49" fill="none" xmlns="http://www.w3.org/2000/svg">
<path d="M49.9935 17.197V38.3906H46.4458C47.5718 43.5692 43.7579 48.2625 38.7332 48.4374C36.3703 48.5183 34.3152 47.7132 32.6542 46.0287C30.5574 43.9033 29.8881 41.3315 30.4361 38.401H19.5464C20.632 43.6553 16.8664 48.1373 12.0452 48.4282C9.68616 48.5705 7.60894 47.8163 5.91273 46.1736C3.70373 44.0403 2.99654 41.4098 3.56412 38.3566H0.0412096V26.9502H7.80466L7.8699 26.8354C7.74836 26.7559 7.632 26.6687 7.52152 26.5745C5.11289 24.2424 2.70862 21.906 0.308696 19.5652C0.129018 19.3732 0.0239554 19.1233 0.0125082 18.8606C-0.00445395 15.0193 0.000753704 11.178 0.000753704 7.33807V6.81616C1.13852 6.81616 2.22541 6.80311 3.31098 6.82529C3.46092 6.83551 3.61094 6.8066 3.74635 6.74142C3.88175 6.67623 3.9979 6.577 4.08342 6.45343C5.08941 5.21911 6.0406 3.92476 7.16793 2.80787C10.5904 -0.58456 15.1375 -0.909451 19.0636 1.86843C19.1524 1.93106 19.2437 1.98977 19.3246 2.04849C19.5529 1.8893 19.7499 1.74578 19.9522 1.61008C23.3081 -0.638056 27.3268 -0.511493 30.4961 1.95715C32.0619 3.17843 33.3066 4.70894 34.4574 6.31121C34.7393 6.70264 35.0328 6.83312 35.5013 6.83312C40.1398 6.81485 44.777 6.82138 49.4155 6.82268C49.6099 6.82268 49.8069 6.83834 50 6.84617V12.8038L40.723 15.1067C39.3373 15.4512 37.953 15.7983 36.5816 16.1414V17.1996L49.9935 17.197ZM47.0173 9.78845H2.93782C2.92869 9.88892 2.91826 9.95285 2.91826 10.0155C2.91826 12.5872 2.91825 15.1589 2.92869 17.7307C2.94753 17.9477 3.04331 18.1508 3.19878 18.3035C6.07538 21.1096 8.96287 23.9066 11.8612 26.6945C12.0635 26.8657 12.3191 26.9612 12.5841 26.9646C19.4037 26.9794 26.2238 26.9829 33.0444 26.975H33.6041V26.3383C33.6041 22.337 33.6041 18.3326 33.6041 14.3252C33.6041 13.9742 33.6915 13.8307 34.0582 13.7406C38.2087 12.7216 42.3501 11.6699 46.5006 10.6535C47.0055 10.5283 47.1817 10.3143 47.0173 9.78845ZM2.94174 35.4365C3.48322 35.4365 3.98556 35.4183 4.48659 35.4431C4.62149 35.454 4.75689 35.4293 4.87919 35.3713C5.00149 35.3134 5.1064 35.2243 5.18336 35.1129C8.56405 31.0238 14.5778 31.0459 17.9415 35.1403C18.0824 35.3033 18.2814 35.4049 18.496 35.4235C22.8236 35.4391 27.1524 35.4391 31.4825 35.4235C31.6814 35.4046 31.8681 35.3191 32.0123 35.1808C32.4755 34.7502 32.9152 34.2935 33.3575 33.8408C33.4528 33.7429 33.5898 33.6177 33.5911 33.5028C33.608 32.3207 33.6015 31.1373 33.6015 29.9304H2.93912L2.94174 35.4365ZM47.0434 26.564H46.4732C44.777 26.564 43.0899 26.5536 41.3989 26.5732C41.044 26.5732 40.8548 26.4753 40.6891 26.1517C39.7757 24.3589 38.8271 22.5805 37.8916 20.8021C37.4911 20.0375 37.4767 20.0297 36.5555 20.2006V32.2398C36.6424 32.247 36.7296 32.247 36.8165 32.2398C40.0863 31.6762 42.7676 32.6965 44.8892 35.233C44.9628 35.3348 45.0708 35.4066 45.1932 35.4352C45.8038 35.4535 46.4158 35.4444 47.0394 35.4444L47.0434 26.564ZM6.28589 40.1377C6.16977 42.9273 8.47793 45.392 11.3145 45.5094C14.1511 45.6269 16.6641 43.3735 16.7842 40.5891C16.9146 37.5503 14.6965 35.109 11.6955 34.9929C8.8263 34.8768 6.40854 37.1758 6.28589 40.1377ZM43.6979 40.3099C43.7605 37.4576 41.408 35.0451 38.5075 34.9903C35.6826 34.9368 33.2531 37.2606 33.1918 40.0789C33.1279 43.0291 35.3904 45.4377 38.2974 45.516C38.9948 45.5326 39.6887 45.4107 40.3387 45.1574C40.9887 44.904 41.582 44.5243 42.0843 44.0401C42.5865 43.5559 42.9878 42.9769 43.2647 42.3366C43.5417 41.6963 43.6889 41.0075 43.6979 40.3099ZM19.669 6.80441C18.6904 4.68936 15.5773 2.81309 13.3239 2.94879C11.2663 3.07274 8.12824 5.1891 7.62329 6.80441H19.669ZM21.4109 4.16354C22.0307 4.96206 22.6387 5.72145 23.218 6.50171C23.2952 6.61273 23.4006 6.70121 23.5232 6.75807C23.6459 6.81494 23.7815 6.83814 23.9161 6.82529C26.1434 6.81485 28.3706 6.82529 30.5966 6.81877C30.7349 6.81877 30.8732 6.8005 31.1185 6.78484C29.8228 5.06514 28.4111 3.64163 26.3352 3.10928C24.5476 2.6526 22.9388 3.11058 21.4109 4.16354ZM47.0473 20.1628H40.8796C41.4693 21.2901 42.0252 22.3705 42.6084 23.4365C42.6697 23.5474 42.8955 23.6178 43.0468 23.6217C43.7958 23.64 44.5447 23.6309 45.2936 23.6309H47.0473V20.1628Z" fill="#377BE1"/>
<path d="M13.4673 13.875H16.3378V23.4625H13.4673V13.875Z" fill="#00CD69"/>
<path d="M23.0691 23.4651H20.1986V13.8789H23.0691V23.4651Z" fill="#00CD69"/>
<path d="M26.9106 13.8711H29.7681V23.4547H26.9106V13.8711Z" fill="#00CD69"/>
<path d="M6.74121 13.5618H9.62959V16.4319H6.74774L6.74121 13.5618Z" fill="#00CD69"/>
<path d="M10.1025 38.8118H12.9609V41.6819H10.1025V38.8118Z" fill="#377BE1"/>
<path d="M37.0098 41.6782V38.8198H39.8864V41.6782H37.0098Z" fill="#377BE1"/>
</svg>
