<svg width="50" height="50" viewBox="0 0 50 50" fill="none" xmlns="http://www.w3.org/2000/svg">
<path d="M49.9987 49.7923C49.8212 49.7845 49.6436 49.7688 49.4648 49.7688H0V46.8201H10.2245V42.4264C10.0692 42.416 9.91516 42.3977 9.76113 42.3964C8.93095 42.3964 8.10076 42.3964 7.26928 42.3964C3.93159 42.3716 1.44498 39.8759 1.43454 36.5434C1.43454 35.5696 1.43454 34.5972 1.43454 33.5725H2.63934C4.02297 33.5725 5.40922 33.6078 6.79154 33.5647C8.69469 33.5033 10.3589 34.015 11.7021 35.4483C11.7598 35.4173 11.8144 35.3811 11.8653 35.3399C13.0897 34.1025 14.579 33.5477 16.3112 33.5686C18.0433 33.5895 19.7637 33.5686 21.4906 33.5686H22.0258C21.9762 35.8581 22.4174 38.1816 20.8289 40.1565C19.7402 41.5114 18.3488 42.2998 16.6023 42.3755C15.498 42.4212 14.3911 42.3834 13.2411 42.3834V46.7784H36.6936V42.3951C35.6794 42.3951 34.69 42.3951 33.7005 42.3951C31.7243 42.3808 30.1462 41.5702 28.9792 39.9816C28.2872 39.044 27.9131 37.9097 27.9115 36.7444C27.8998 35.7002 27.9115 34.6664 27.9115 33.5712H28.7665C30.3785 33.5712 31.9906 33.5882 33.6026 33.5712C35.3335 33.5477 36.8281 34.0868 38.0564 35.3256C38.1104 35.3728 38.1675 35.4165 38.2274 35.4561C39.2468 34.3831 40.4803 33.7279 41.9514 33.6117C42.7933 33.5451 43.6483 33.5804 44.4903 33.5777C45.8073 33.5777 47.1244 33.5777 48.4662 33.5777C48.49 33.6948 48.5049 33.8135 48.5106 33.9328C48.4558 35.2955 48.5589 36.6909 48.3018 38.0145C47.8097 40.5416 45.5606 42.3011 42.9892 42.3899C41.9175 42.4264 40.8432 42.3899 39.7259 42.3899V46.8162H40.2833C43.3116 46.8162 46.3403 46.8162 49.3695 46.8162C49.5797 46.8162 49.7898 46.8436 50 46.858L49.9987 49.7923ZM13.2463 39.4569C14.1874 39.4569 15.0972 39.4569 16.007 39.4569C16.2354 39.4604 16.4638 39.4508 16.691 39.4281C18.0864 39.2637 19.2194 37.8787 19.0315 36.5134C18.0512 36.5134 17.0617 36.5134 16.0723 36.5134C15.8445 36.5173 15.6176 36.5435 15.3948 36.5917C14.7512 36.729 14.179 37.0947 13.784 37.6211C13.3891 38.1476 13.1981 38.7992 13.2463 39.4556V39.4569ZM39.7285 39.4569C40.62 39.4569 41.4815 39.4569 42.3391 39.4569C42.6002 39.4569 42.8612 39.4569 43.1223 39.4321C44.5412 39.2924 45.712 37.88 45.511 36.5852C44.3088 36.5852 43.0988 36.4808 41.9149 36.6126C40.5613 36.7614 39.6175 38.0758 39.7285 39.4556V39.4569ZM4.40412 36.5447C4.34669 37.9205 5.24082 39.1958 6.57876 39.3629C7.77443 39.5117 9.00405 39.3942 10.2167 39.3942C10.2743 38.7043 10.0564 38.0197 9.61078 37.4899C9.16514 36.9602 8.52795 36.6283 7.83841 36.5669C6.71062 36.4546 5.56585 36.5447 4.40412 36.5447ZM30.8837 36.5356C30.8184 37.9127 31.7139 39.1932 33.0531 39.3616C34.2488 39.5117 35.4784 39.3929 36.6923 39.3929C36.7203 39.0476 36.6799 38.7002 36.5733 38.3706C36.4667 38.041 36.2962 37.7357 36.0713 37.4721C35.8465 37.2086 35.5718 36.9921 35.2631 36.8349C34.9544 36.6778 34.6177 36.5832 34.2723 36.5565C33.1575 36.4546 32.0298 36.5356 30.8798 36.5356H30.8837Z" fill="#377BE1"/>
<path d="M49.9986 14.6065C49.8681 14.72 49.7232 14.8257 49.5992 14.9498C45.7059 18.8396 41.8147 22.7316 37.9258 26.6258C37.7888 26.784 37.6611 26.9501 37.5433 27.1231C37.0655 26.6166 36.6505 26.2029 36.2693 25.7617C36.0383 25.4941 35.7929 25.451 35.4535 25.4902C32.6419 25.8178 29.8263 26.118 27.0147 26.4404C26.8731 26.4637 26.7281 26.4505 26.5931 26.4021C26.4581 26.3537 26.3377 26.2716 26.2432 26.1637C24.6625 24.5686 23.0674 22.9879 21.4136 21.334L28.7612 18.1765C28.2978 17.7418 27.8866 17.375 27.4963 16.9873C26.1223 15.6211 24.7517 14.2514 23.3846 12.8782C21.0898 10.5835 20.8027 6.9038 22.8337 4.3741C23.7958 3.17583 24.9601 2.1381 26.0761 0.98029L28.1646 3.0949L30.1944 5.15077L35.3321 0L38.4949 3.18235C39.8772 1.60553 41.4971 0.85759 43.5034 1.14084C44.7272 1.31435 45.8433 1.93518 46.6361 2.88344C48.132 4.59992 48.6528 7.88017 45.9391 10.3237L50.0012 14.5112L49.9986 14.6065ZM45.7341 14.5595L35.4548 4.26446L27.2666 12.4475C30.6852 15.8648 34.1338 19.3147 37.5577 22.7386L45.7341 14.5595ZM43.801 8.23C45.1193 7.06174 45.2916 5.61937 44.233 4.61689C43.4577 3.87939 41.8717 3.57264 40.7087 5.13902L43.801 8.23ZM33.3036 22.7725C32.5061 21.9893 31.8195 21.2949 31.1081 20.6279C31.0397 20.5871 30.9631 20.5622 30.8838 20.555C30.8045 20.5477 30.7246 20.5584 30.65 20.5861C30.0443 20.8197 29.4517 21.0873 28.8539 21.3445L26.6257 22.3065C27.1739 23.0336 27.7026 23.5126 28.7142 23.3233C30.1696 23.0466 31.6668 22.9592 33.3036 22.7725ZM25.028 10.248L28.0158 7.25754L26.0278 5.26824C24.3179 6.64274 23.9145 8.62159 25.028 10.248Z" fill="#00CD69"/>
<path d="M8.81348 24.7812H11.6852V27.6634H8.81348V24.7812Z" fill="#377BE1"/>
<path d="M2.94238 27.7065H5.80101V30.6043H2.94238V27.7065Z" fill="#377BE1"/>
<path d="M22.0074 30.6044H19.1357V27.7327H22.0074V30.6044Z" fill="#377BE1"/>
<path d="M14.7163 24.7147V21.8586H17.588V24.7199L14.7163 24.7147Z" fill="#377BE1"/>
</svg>
