<svg width="46" height="50" viewBox="0 0 46 50" fill="none" xmlns="http://www.w3.org/2000/svg">
<path d="M37.6762 0C37.5872 1.71199 37.6537 3.39262 38.6395 4.89139C39.8648 6.75889 41.5731 7.80866 43.8168 7.93408C44.3975 7.96794 44.982 7.93408 45.5827 7.93408C45.5965 8.13601 45.6128 8.26268 45.6128 8.38935C45.6128 11.6503 45.6455 14.9112 45.6003 18.1721C45.4937 25.9068 43.038 32.8337 38.282 38.9292C34.2949 44.0375 29.2179 47.6772 23.1513 49.9385C22.9284 50.0164 22.6857 50.0164 22.4628 49.9385C11.0696 45.4477 3.86925 37.2644 0.861671 25.3888C0.23457 22.9005 -0.00248873 20.3519 1.96768e-05 17.7846C1.96768e-05 14.6717 1.96768e-05 11.5587 1.96768e-05 8.44579C1.96768e-05 8.30281 0.0138098 8.15984 0.0250976 7.94411C0.663486 7.94411 1.27932 7.96669 1.89513 7.94411C5.10714 7.80364 7.84129 5.02935 7.93787 1.81859C7.95668 1.21658 7.93787 0.613305 7.93787 0.0100338L37.6762 0ZM2.95869 10.8012C2.95117 10.9266 2.93986 11.0257 2.93986 11.1223C2.93986 13.371 2.901 15.6211 2.95618 17.8686C2.97658 19.3833 3.08966 20.8954 3.29481 22.3963C3.93652 26.8097 5.53348 31.03 7.97424 34.7627C11.5763 40.2929 16.4301 44.3084 22.5355 46.8093C22.6953 46.8747 22.8732 46.881 23.0372 46.8269C25.8986 45.6802 28.5734 44.1141 30.9738 42.1801C34.4228 39.3995 37.2439 35.9201 39.2515 31.9709C41.1905 28.1882 42.3632 24.1635 42.5664 19.9105C42.7119 16.9668 42.6466 14.0157 42.6717 11.0646C42.6671 10.98 42.6545 10.896 42.6341 10.8137C38.3385 9.84799 35.7498 7.23047 34.7928 2.95365H10.81C10.0838 7.09627 6.90817 10.1013 2.95869 10.8012Z" fill="#377BE1"/>
<path d="M22.8137 8.33789C26.5098 11.5474 29.6642 15.0905 31.5781 19.5856C32.9727 22.859 33.1922 26.1914 31.6759 29.485C30.2587 32.564 27.9296 34.5984 24.547 35.3057C24.454 35.3316 24.3623 35.3622 24.2723 35.3973V39.1599H21.3639V35.3973C20.9776 35.3007 20.6276 35.2342 20.2903 35.1251C16.2768 33.8345 14.0117 30.9863 13.1413 26.9628C12.612 24.5133 12.9958 22.1266 13.9415 19.8377C15.8454 15.2184 19.0498 11.5988 22.8137 8.33789ZM24.2799 32.3471C25.736 32.0033 27.0287 31.1673 27.9396 29.9804C29.92 27.4431 30.2185 24.6199 29.2214 21.6274C28.3033 18.8757 26.6516 16.5604 24.7753 14.3932C24.162 13.6833 23.5023 13.0136 22.8012 12.261C21.9232 13.2393 21.0679 14.131 20.2827 15.0805C18.5833 17.1374 17.1021 19.336 16.3182 21.9221C15.434 24.8344 15.7902 27.566 17.6978 29.9942C18.6079 31.1739 19.8954 32.0054 21.345 32.3496C21.345 31.2622 21.2886 30.2174 21.3626 29.1802C21.419 28.3938 21.172 27.8959 20.5072 27.4682C19.5979 26.8813 18.7514 26.1877 17.8559 25.5179L19.603 23.1713L21.3588 24.4569V20.8912H24.2761V24.4431L26.0207 23.1713L27.7565 25.5054C27.6123 25.6233 27.5057 25.7174 27.389 25.8026C26.4497 26.5037 25.5077 27.1998 24.5733 27.9097C24.4479 28.0063 24.2937 28.1756 24.2924 28.3136C24.2711 29.6418 24.2799 30.9737 24.2799 32.3471Z" fill="#00CD69"/>
</svg>
