<svg width="50" height="50" viewBox="0 0 50 50" fill="none" xmlns="http://www.w3.org/2000/svg">
<path d="M17.22 24.0086C16.835 24.0131 16.4575 23.9035 16.1347 23.6937C15.812 23.4839 15.5586 23.1832 15.4065 22.8295C15.2545 22.4759 15.2106 22.0851 15.2803 21.7066C15.35 21.328 15.5303 20.9785 15.7984 20.7023C16.0664 20.426 16.4103 20.2354 16.7866 20.1543C17.1629 20.0732 17.5548 20.1054 17.9129 20.2468C18.2709 20.3882 18.5791 20.6324 18.7985 20.9487C19.0179 21.265 19.1388 21.6392 19.1458 22.024C19.1533 22.5425 18.9547 23.0427 18.5936 23.4149C18.2325 23.787 17.7384 24.0005 17.22 24.0086Z" fill="#377BE1"/>
<path d="M34.7662 22.0397C34.77 22.4247 34.6597 22.8022 34.4492 23.1246C34.2388 23.447 33.9375 23.6998 33.5835 23.8511C33.2295 24.0025 32.8386 24.0456 32.4601 23.9751C32.0817 23.9046 31.7325 23.7235 31.4568 23.4548C31.1811 23.1861 30.9912 22.8417 30.9109 22.4652C30.8307 22.0886 30.8638 21.6967 31.0061 21.339C31.1483 20.9812 31.3933 20.6736 31.7102 20.4549C32.0271 20.2362 32.4016 20.1163 32.7865 20.1102C33.3048 20.104 33.8043 20.3037 34.1755 20.6655C34.5467 21.0272 34.7591 21.5215 34.7662 22.0397Z" fill="#377BE1"/>
<path d="M22.0739 42.171C22.0739 42.5561 21.9598 42.9327 21.7459 43.253C21.5321 43.5734 21.2281 43.8232 20.8724 43.9709C20.5167 44.1187 20.1252 44.1577 19.7473 44.0831C19.3694 44.0085 19.0221 43.8236 18.7493 43.5517C18.4764 43.2799 18.2902 42.9333 18.2142 42.5557C18.1381 42.1781 18.1757 41.7864 18.3221 41.4302C18.4685 41.0739 18.7171 40.769 19.0367 40.554C19.3562 40.3389 19.7323 40.2234 20.1175 40.2219C20.6351 40.2219 21.1316 40.427 21.4983 40.7923C21.865 41.1576 22.072 41.6534 22.0739 42.171Z" fill="#00CD69"/>
<path d="M31.8374 42.1477C31.8431 42.5328 31.7345 42.9111 31.5255 43.2346C31.3164 43.5581 31.0161 43.8124 30.6626 43.9654C30.3091 44.1184 29.9182 44.1632 29.5392 44.0942C29.1603 44.0252 28.8103 43.8454 28.5334 43.5776C28.2565 43.3098 28.0652 42.9659 27.9836 42.5894C27.9021 42.213 27.9339 41.8208 28.0751 41.4624C28.2163 41.104 28.4605 40.7954 28.7769 40.5758C29.0933 40.3561 29.4677 40.235 29.8529 40.228C30.3703 40.2205 30.8696 40.4182 31.2415 40.778C31.6134 41.1378 31.8277 41.6303 31.8374 42.1477Z" fill="#00CD69"/>
<path d="M49.9254 2.7157C49.9436 2.62073 49.9686 2.52716 50 2.43569V0H47.0654V1.48196C47.0654 3.05562 46.6582 4.51435 45.7265 5.78477C44.28 7.75827 42.3848 8.8942 39.8574 8.89053C29.7869 8.87504 19.7156 8.87056 9.64349 8.87708C9.22247 8.87449 8.80379 8.81484 8.39878 8.69978C5.13652 7.78273 2.97837 4.95331 2.93802 1.56877C2.9319 1.054 2.93802 0.540451 2.93802 0.0391285H0.0425515C-0.246015 3.9201 0.919291 7.18481 3.96146 9.69876C3.82207 9.78924 3.74134 9.84427 3.65942 9.8944C1.79474 11.023 0.567132 12.6309 0.191752 14.7854C0.0144548 15.8002 0.0437766 16.8554 0.0144309 17.8935C-0.0124693 18.8143 0.0083411 19.7374 0.0083411 20.6973C1.5869 20.6973 3.11286 20.7144 4.63761 20.6973C6.19545 20.6779 7.70461 20.1516 8.93678 19.1982C9.04315 19.1187 9.15809 19.049 9.3036 18.9537C9.32561 19.1297 9.34638 19.2398 9.3525 19.3511C9.49026 22.0639 9.62763 24.7768 9.76457 27.4896C9.90886 30.2726 10.0201 33.0567 10.1693 35.8385L13.0171 33.7451C12.6405 26.3952 12.2687 19.1456 11.8946 11.8581H38.0991C37.7261 19.1346 37.3544 26.3769 36.9778 33.7353L39.8292 35.8861C39.9809 33.0836 40.0921 30.2774 40.2376 27.4749C40.377 24.7629 40.5148 22.0505 40.6509 19.3376C40.6659 19.1955 40.6884 19.0543 40.7182 18.9145C41.7208 19.724 42.7871 20.3011 44.011 20.5212C44.5539 20.6198 45.1039 20.6746 45.6556 20.6851C47.1021 20.7071 48.551 20.6924 49.9987 20.6924V15.5178C49.7273 14.6398 49.5415 13.724 49.1673 12.8938C48.5877 11.6062 47.612 10.6293 46.388 9.91151C46.2902 9.85405 46.1985 9.78924 45.9527 9.62662C46.0882 9.57203 46.2177 9.5036 46.3391 9.42242C48.3982 7.64945 49.5936 5.41388 49.9254 2.7157ZM3.00405 17.7297C2.4905 14.1483 4.43832 11.3458 8.87319 11.8459C9.30726 16.0056 6.92415 18.1711 3.00405 17.7297ZM47.0434 17.6955C43.6601 18.2053 40.6558 16.4605 41.1461 11.8447C45.1115 11.4008 47.4799 13.581 47.0434 17.6955Z" fill="#377BE1"/>
<path d="M32.6725 49.3986C36.8298 47.8311 39.2019 44.8146 39.5406 40.3846C39.6555 38.8867 39.7472 37.3877 39.8279 35.8886L36.9802 33.717L36.9728 33.7084C33.4269 30.9316 29.4468 29.4875 25.0046 29.49C20.5624 29.4924 16.591 30.9218 13.0218 33.7243L10.1777 35.814C10.2597 37.3375 10.3526 38.8611 10.47 40.3821C10.8111 44.8354 13.1991 47.8555 17.3834 49.4157C18.1048 49.6847 18.8848 49.796 19.6368 49.9794H30.3761C31.1477 49.7911 31.9376 49.6762 32.6725 49.3986ZM24.9692 47.0424V47.051C23.5692 47.051 22.1704 47.0571 20.7716 47.051C17.0202 47.0289 14.0587 44.5529 13.4351 40.8505C13.2639 39.8295 13.2774 38.7718 13.226 37.7374C13.2378 37.5984 13.2989 37.4683 13.3984 37.3705C15.0968 35.5951 17.1806 34.2338 19.4888 33.3919C21.7969 32.55 24.2678 32.25 26.7104 32.515C30.2074 32.9075 33.2557 34.3064 35.887 36.654C36.5473 37.2422 36.8456 37.823 36.7429 38.7327C36.5999 40.0227 36.6427 41.3396 36.0888 42.5525C34.8196 45.3318 32.6529 46.8651 29.5997 47.0289C28.0652 47.1133 26.516 47.0436 24.9717 47.0436L24.9692 47.0424Z" fill="#00CD69"/>
</svg>
