<svg width="40" height="50" viewBox="0 0 40 50" fill="none" xmlns="http://www.w3.org/2000/svg">
<path d="M39.0591 50H0.738279V47.0613H3.60127C-1.20042 32.3272 -1.20042 17.6027 3.60127 2.88781H0.781339V0H39.0017V2.89694H36.1543C41.0004 17.6493 40.9965 32.3324 36.1543 47.0704H39.0591V50ZM19.8954 10.2535C15.0102 10.2535 10.1236 10.2614 5.23709 10.2405C4.73316 10.2405 4.55169 10.371 4.45378 10.871C2.46412 20.2332 2.48012 29.9106 4.50076 39.266C4.57125 39.5885 4.68093 39.7138 5.03734 39.7138C14.9392 39.7034 24.842 39.7034 34.7457 39.7138C35.0851 39.7138 35.2157 39.6211 35.2914 39.2765C35.9744 36.1443 36.4282 32.9665 36.6491 29.7684C37.1034 23.4279 36.6604 17.055 35.3332 10.8384C35.2392 10.3971 35.089 10.2418 34.6099 10.2431C29.7012 10.2614 24.7977 10.2535 19.8954 10.2535ZM5.36894 7.27826H34.3801C34.3475 7.13857 34.3331 7.02629 34.2979 6.92185C33.8971 5.73644 33.4806 4.55626 33.0994 3.36432C32.978 2.98702 32.7861 2.88781 32.3971 2.88781C24.0574 2.90086 15.7178 2.90391 7.37812 2.89694C7.32946 2.90085 7.28058 2.90085 7.23192 2.89694C6.95254 2.84603 6.82459 2.98441 6.73843 3.23638C6.46427 4.03535 6.16662 4.8265 5.89246 5.62678C5.70969 6.16074 5.55041 6.70253 5.36894 7.27826ZM34.4389 42.6787H5.39635C5.43944 42.8484 5.46684 42.9894 5.51253 43.1238C5.90419 44.2623 6.3063 45.3941 6.66662 46.5417C6.79717 46.9568 6.99954 47.0717 7.42905 47.0717C15.5885 47.0578 23.7489 47.0543 31.9101 47.0613C32.9166 47.0613 32.9323 47.0613 33.2639 46.1344C33.666 45.0051 34.0368 43.8654 34.4389 42.6787Z" fill="#377BE1"/>
<path d="M21.8681 31.7572V36.1516H18.9294V31.7651H17.5195C13.4397 31.7507 10.2503 28.6945 10.1093 24.6187C10.0571 23.1069 10.1002 21.5925 10.1002 20.0271H14.6408C14.864 19.1133 14.9972 18.2425 15.2935 17.4292C16.1526 15.0923 17.8236 13.5322 20.1318 12.6444C20.3279 12.5837 20.5389 12.592 20.7297 12.6679C23.8303 13.9408 25.6176 16.2255 26.004 19.5754C26.0131 19.6564 26.0197 19.7373 26.034 19.817C26.0517 19.8815 26.0726 19.9451 26.0967 20.0076H30.6986C30.6986 21.4554 30.7208 22.851 30.6895 24.2466C30.6858 24.8963 30.6141 25.5439 30.4754 26.1787C30.0957 27.75 29.2052 29.1509 27.9434 30.1614C26.6817 31.172 25.1202 31.7351 23.5039 31.7624C22.9778 31.7651 22.4595 31.7572 21.8681 31.7572ZM27.7221 22.9868C23.5444 22.4515 21.3838 25.1983 21.9295 28.7833C25.6071 29.2467 28.1803 27.1631 27.7221 22.9868ZM13.0885 22.9737C12.5507 27.1148 15.2426 29.3042 18.8811 28.7637C19.3602 25.2257 17.3406 22.4867 13.0885 22.9737ZM20.2832 22.7909C21.184 22.1108 22.0261 21.4854 22.8525 20.8327C22.9828 20.7274 23.0663 20.5749 23.0849 20.4084C23.0914 18.4723 22.2898 16.9553 20.6592 15.8991C20.5797 15.8595 20.4921 15.839 20.4033 15.839C20.3145 15.839 20.2269 15.8595 20.1474 15.8991C18.5077 16.9435 17.7127 18.4631 17.697 20.3953C17.6964 20.4714 17.7125 20.5467 17.7441 20.6159C17.7756 20.6851 17.822 20.7466 17.8798 20.7961C18.8051 21.2953 19.6221 21.9734 20.2832 22.7909Z" fill="#00CD69"/>
</svg>
