<svg width="50" height="50" viewBox="0 0 50 50" fill="none" xmlns="http://www.w3.org/2000/svg">
<path d="M14.7247 0V11.4786C15.6264 10.8569 16.4772 10.1441 17.4386 9.64186C18.4001 9.13959 19.482 8.84196 20.5834 8.42684V5.99091H23.5206V6.48045C23.5206 14.5578 23.5206 22.6351 23.5206 30.7124C23.5206 35.2161 20.9193 38.963 16.721 40.5236C16.0866 40.7586 15.4129 40.8917 14.7315 41.0797V49.9892H11.8109V41.0895C11.1119 40.8937 10.4403 40.7635 9.80386 40.5285C5.62128 38.9747 3.01501 35.2327 3.00522 30.7662C2.99347 25.6046 3.00522 20.4419 3.00522 15.2793V5.98406H5.92383V8.56292C8.19624 8.96238 10.1182 9.94733 11.7982 11.6578V0H14.7247ZM5.96886 29.1948C5.74955 31.7218 6.14118 34.0363 7.95539 35.92C9.00397 37.0097 10.2542 37.7342 11.7561 38.0319C12.2505 33.3353 9.3486 29.8527 5.96886 29.1948ZM14.7638 37.9878C18.2239 37.8723 21.3236 33.1434 20.5315 29.1958C17.0157 29.9076 14.2655 33.5047 14.7638 37.9878ZM11.7473 20.3646C12.2995 15.8677 9.28987 12.1238 5.95418 11.6362V17.3246C9.63646 18.5484 9.63645 18.5484 11.7434 20.3675L11.7473 20.3646ZM5.95026 26.1626C8.21093 26.5601 10.1289 27.5666 11.7698 29.1929C12.229 23.9813 8.82187 20.8708 5.95026 20.4096V26.1626ZM20.5922 26.1558V20.391C16.1345 21.3074 14.2126 26.0207 14.8235 29.1439C16.4175 27.5363 18.3443 26.565 20.5883 26.1587L20.5922 26.1558ZM20.5746 11.5912C16.5957 12.4224 14.2479 16.5139 14.7981 20.3754C16.3543 18.7814 18.3775 17.7242 20.5746 17.3569V11.5912Z" fill="#377BE1"/>
<path d="M26.4511 11.8468H29.3697V14.4315C31.6353 14.8398 33.5601 15.8179 35.2245 17.4891V5.99097H38.1617V17.3481C39.0713 16.7294 39.9241 16.0303 40.8806 15.532C41.8372 15.0336 42.922 14.7223 44.0234 14.3013V11.8615H46.9753V12.4195C46.9753 20.4303 46.9362 28.441 46.989 36.4507C47.0243 41.7661 43.2686 46.0211 38.5123 46.8288C38.4143 46.8455 38.3252 46.8827 38.1901 46.9268V49.9991H35.2529V47.0345C34.1603 46.6428 33.0823 46.3844 32.1307 45.887C28.5815 44.0326 26.6479 41.0602 26.4795 37.0558C26.3708 34.4554 26.4521 31.8472 26.4511 29.2419C26.4511 23.6573 26.4511 18.073 26.4511 12.489V11.8468ZM29.4138 35.0507C29.0221 39.5886 31.7371 43.6929 35.2089 43.8535C35.7062 39.4251 33.0011 35.7879 29.4138 35.0516V35.0507ZM38.2146 43.8554C41.7197 43.6733 44.8263 38.9278 43.9745 35.0565C40.396 35.8026 37.7172 39.4506 38.2146 43.8564V43.8554ZM29.403 23.0992C30.4927 23.5133 31.5638 23.8159 32.5311 24.3191C33.4985 24.8224 34.3453 25.5155 35.2265 26.1098C35.6945 21.5082 32.6888 18.0707 29.405 17.4696L29.403 23.0992ZM44.0224 17.4647C40.2892 18.2087 37.7094 22.0663 38.2342 26.2479C39.799 24.6599 41.8242 23.6052 44.0224 23.2333V17.4647ZM35.2108 35.0634C35.6886 30.1965 32.5898 26.8392 29.4079 26.2704V32.0332C31.6133 32.404 33.6445 33.4642 35.2099 35.0614L35.2108 35.0634ZM38.2214 35.0565C39.7874 33.4629 41.8159 32.4032 44.0185 32.0283V26.2635C40.6016 26.9029 37.7221 30.4735 38.2205 35.0546L38.2214 35.0565Z" fill="#00CD69"/>
</svg>
