<svg width="50" height="50" viewBox="0 0 50 50" fill="none" xmlns="http://www.w3.org/2000/svg">
<g clip-path="url(#clip0_4168_5797)">
<path d="M9.18822 9.25488C8.06025 9.83192 7.36047 10.7719 6.95054 11.9429C6.83696 11.9168 6.77301 11.9064 6.71035 11.8881C3.78077 11.0356 1.02742 13.0252 1.01828 16.0658C0.993908 23.6056 0.993908 31.1458 1.01828 38.6865C1.01828 40.7244 1.94258 42.3106 3.62931 43.4438C3.73911 43.5074 3.82796 43.6017 3.885 43.7151C3.94204 43.8285 3.96479 43.9561 3.95046 44.0822C3.94002 45.4986 3.95046 46.9151 3.95046 48.3329V50.0001H25.7278V44.1657L22.7408 44.1527V47.0731H6.88138V41.6565C6.53541 41.5377 6.21164 41.432 5.89178 41.3184C4.68157 40.8902 3.94916 39.9045 3.94785 38.6173C3.94176 31.128 3.94176 23.6373 3.94785 16.1454C3.94785 15.242 4.5406 14.6114 5.36308 14.6023C6.18555 14.5931 6.80562 15.2433 6.80692 16.1689C6.80692 19.4266 6.80692 22.6834 6.80692 25.9394V26.5647H9.73917V25.9968C9.73917 21.7635 9.73917 17.5297 9.73917 13.2955C9.73917 12.3333 10.3449 11.691 11.2105 11.7093C11.5394 11.71 11.8574 11.8273 12.1081 12.0402C12.3588 12.2532 12.526 12.548 12.5799 12.8725L12.7445 9.03947C11.499 8.64781 10.3279 8.67262 9.18822 9.25488Z" fill="#00CD69"/>
<path d="M47.838 18.7042C46.0534 16.93 43.4175 16.9783 41.5598 18.8216C40.7621 19.6141 39.9697 20.4118 39.1733 21.2042C39.0767 21.2995 38.9684 21.3844 38.7817 21.5437V20.9222C38.7817 16.4278 38.7817 11.9329 38.7817 7.43753C38.7817 5.1359 37.3717 3.35257 35.1889 2.99877C34.4278 2.86822 33.6222 3.01966 32.7867 3.04185C32.6071 2.47491 32.3122 1.95129 31.9203 1.50394C31.5285 1.0566 31.0482 0.695225 30.5099 0.442572C30.1088 0.27375 29.6992 0.126023 29.2827 0H28.0124C27.9718 0.0267665 27.9279 0.0482608 27.8819 0.0639691C26.1716 0.408626 25.0332 1.40996 24.447 3.04838C24.4314 3.09016 24.387 3.12149 24.3596 3.15413C22.1206 2.43218 19.601 3.26902 18.5488 6.07849C17.3438 5.68683 16.1505 5.7038 15.0042 6.2939C13.858 6.88399 13.1491 7.83702 12.7535 9.04332L12.5825 12.875C12.6167 13.1 12.6307 13.3277 12.6243 13.5552C12.6243 19.7916 12.6478 26.0294 12.6152 32.2659C12.6034 34.5597 13.3985 36.3809 15.3384 37.6655C15.469 37.753 15.5474 38.018 15.5487 38.2007C15.5643 39.9749 15.5591 41.7504 15.5591 43.526V44.1565H22.7394L25.7265 44.1696H37.3182C37.3182 42.1604 37.3273 40.223 37.3103 38.2856C37.2974 38.1365 37.3273 37.9869 37.3967 37.8543C37.4661 37.7217 37.5721 37.6118 37.702 37.5375C39.2934 36.4435 40.159 34.9265 40.2295 32.9852C40.2302 32.8186 40.2653 32.654 40.3327 32.5017C40.4001 32.3494 40.4983 32.2126 40.6211 32.1001C43.0006 29.7353 45.3741 27.3641 47.7414 24.9863C49.577 23.1481 49.6109 20.4679 47.838 18.7042ZM45.8536 22.7238C45.6213 22.9954 45.3549 23.2382 45.1016 23.4915C42.6499 25.9446 40.2034 28.4041 37.7373 30.8429C37.42 31.1575 37.2594 31.4682 37.3116 31.9095C37.3273 32.1533 37.3273 32.398 37.3116 32.6418C37.2973 34.0609 36.6262 35.0022 35.2881 35.4814C34.3807 35.8064 34.3808 35.8064 34.3808 36.7725C34.3808 38.206 34.3786 39.639 34.3742 41.0716C34.3692 41.1158 34.3605 41.1594 34.3481 41.2021H18.5187C18.5109 41.0285 18.4952 40.8562 18.4939 40.6799C18.4939 39.1982 18.4809 37.7151 18.5031 36.2412C18.5031 35.8808 18.3947 35.7072 18.0514 35.6315C17.7979 35.5711 17.5509 35.4863 17.3137 35.3782C16.2693 34.9187 15.6779 34.1275 15.5761 32.9839C15.5591 32.7894 15.5617 32.5922 15.5617 32.3977C15.5617 25.1347 15.5617 17.8721 15.5617 10.6099C15.5617 10.4481 15.5617 10.2836 15.5695 10.1217C15.5828 9.75042 15.7402 9.39893 16.0083 9.14179C16.2764 8.88464 16.6341 8.74208 17.0056 8.74435C17.3839 8.75078 17.7447 8.90434 18.0116 9.17246C18.2785 9.44057 18.4305 9.80214 18.4352 10.1804C18.4352 10.311 18.4352 10.4415 18.4352 10.5721V20.7133H21.3674V20.1285C21.3674 15.8951 21.3674 11.6617 21.3674 7.42839C21.3674 6.48972 21.9496 5.85394 22.7917 5.84741C23.1454 5.84102 23.4885 5.96782 23.753 6.20263C24.0176 6.43745 24.1843 6.76313 24.2199 7.11507C24.2365 7.30956 24.2425 7.5048 24.2382 7.69994V20.7277H27.1704V20.0932C27.1704 15.0121 27.1704 9.9315 27.1704 4.8513C27.1643 4.63958 27.1712 4.42768 27.1912 4.21682C27.2289 3.86525 27.3948 3.53991 27.6574 3.30311C27.92 3.06631 28.2607 2.9347 28.6143 2.93349C28.9766 2.9377 29.3245 3.07667 29.5899 3.32333C29.8554 3.56999 30.0195 3.90666 30.0503 4.26774C30.0614 4.43024 30.064 4.59322 30.0582 4.756C30.0582 9.87015 30.0582 14.9834 30.0582 20.0958V20.712H32.9891V20.1232C32.9891 15.8899 32.9891 11.6561 32.9891 7.42186C32.9891 6.46231 33.5948 5.82652 34.4656 5.84872C34.8106 5.85632 35.1408 5.99003 35.3938 6.22456C35.6469 6.4591 35.8053 6.77822 35.839 7.1216C35.8573 7.31481 35.8521 7.51325 35.8521 7.70647C35.8521 12.6091 35.8521 17.5109 35.8521 22.4118C35.8521 23.78 36.5727 24.7618 37.7934 25.0503C38.7072 25.2657 39.5023 25.0137 40.1629 24.3557C41.3378 23.1808 42.5128 22.0058 43.6877 20.8308C44.3405 20.1781 45.1656 20.1781 45.7675 20.7799C46.0348 21.0274 46.1938 21.3703 46.2099 21.7342C46.2261 22.0981 46.098 22.4537 45.8536 22.7238Z" fill="#377BE1"/>
</g>
<defs>
<clipPath id="clip0_4168_5797">
<rect width="50" height="50" fill="white"/>
</clipPath>
</defs>
</svg>
