<svg width="50" height="50" viewBox="0 0 50 50" fill="none" xmlns="http://www.w3.org/2000/svg">
<g clip-path="url(#clip0_4168_16947)">
<path d="M38.2847 50H5.85821V46.9194C5.746 46.8841 5.65597 46.8541 5.56334 46.828C2.09797 45.8372 0.0012437 43.0777 -6.10352e-05 39.4841C-6.10352e-05 29.5504 0.004737 19.6163 0.014305 9.68176C0.00599687 8.8201 0.126943 7.96208 0.373107 7.13633C1.41037 3.85208 3.7589 2.0024 7.10162 1.56381C10.5148 1.11607 13.2104 2.43447 15.0279 5.40283C15.2353 5.74353 15.4454 5.8597 15.8277 5.85056C16.9184 5.82707 18.0092 5.84273 19.0986 5.84273H20.5625V2.87959H16.2152V0H27.9134V2.90831H23.5634V5.87014H30.8856V11.7364H38.1921V20.5866H35.3217V41.1341C36.4725 41.1341 37.5958 41.2137 38.7049 41.1184C41.2021 40.9043 43.2336 39.2231 43.8651 36.8108C44.096 35.9297 44.0647 34.9833 44.126 34.0552C44.16 33.4952 44.126 32.93 44.126 32.3243H41.2126V20.5657H44.1325C44.1325 20.0684 44.1234 19.6324 44.1325 19.1964C44.1523 18.0606 44.6012 16.9744 45.389 16.1563C46.652 14.7974 48.2594 14.5494 49.9999 14.7204V17.6522C49.5616 17.6522 49.1218 17.6261 48.6834 17.6418C47.9084 17.6692 47.2182 18.2279 47.1086 18.9928C47.0356 19.4954 47.0943 20.0175 47.0943 20.584H49.9999V32.3112H47.0604C47.0604 33.3895 47.0747 34.3802 47.0604 35.3697C46.9977 38.9241 44.7706 42.1823 41.45 43.4472C40.448 43.8296 39.3624 43.9941 38.2351 44.28C38.2351 44.8139 38.2351 45.4548 38.2351 46.1075C38.2517 47.4032 38.2682 48.7007 38.2847 50ZM11.7987 41.1458H32.3182V20.6023H11.796L11.7987 41.1458ZM5.89866 20.5618V11.7207H13.2391C13.2391 10.978 13.2587 10.3109 13.2391 9.64651C13.1217 6.05028 10.2695 3.78812 6.83415 4.55566C4.46736 5.08563 2.94342 7.12458 2.94212 9.7888C2.94212 19.6912 2.94212 29.5935 2.94212 39.4959C2.93654 39.8537 2.96846 40.2112 3.03736 40.5623C3.3792 42.1405 4.32384 43.2096 5.88299 43.8596V41.1641H8.7821V20.5618H5.89866ZM8.84473 47.0303H35.2552V44.1481H8.84212L8.84473 47.0303ZM35.2656 14.7243H8.86171V17.5961H35.263L35.2656 14.7243ZM16.2321 8.81109V11.692H27.9173V8.81109H16.2321ZM47.0317 29.3703V23.538H44.1613V29.3703H47.0317Z" fill="#377BE1"/>
<path d="M22.0511 38.2167C18.0299 38.2101 14.6702 34.8828 14.665 30.9002C14.665 26.9424 18.1408 23.4688 22.102 23.4832C26.1388 23.4976 29.4228 26.8379 29.4085 30.9132C29.4054 31.8763 29.2126 32.8293 28.841 33.7178C28.4695 34.6062 27.9265 35.4127 27.2432 36.091C26.5598 36.7693 25.7495 37.3062 24.8586 37.6709C23.9677 38.0357 23.0137 38.2211 22.0511 38.2167ZM20.2897 34.8632C21.7027 35.7104 23.9716 35.2796 25.2777 33.8829C26.5263 32.5462 26.8642 30.3036 26.0475 29.1027L20.2897 34.8632ZM23.8634 26.8601C22.1333 26.0338 20.0535 26.479 18.7344 27.9697C17.5863 29.2672 17.2992 31.404 18.0821 32.6546L23.8634 26.8601Z" fill="#00CD69"/>
</g>
<defs>
<clipPath id="clip0_4168_16947">
<rect width="50" height="50" fill="white"/>
</clipPath>
</defs>
</svg>
