<svg width="50" height="50" viewBox="0 0 50 50" fill="none" xmlns="http://www.w3.org/2000/svg">
<g clip-path="url(#clip0_1004_44413)">
<path d="M47.0801 41.2031V38.2376H49.957V29.4243H47.0879V26.4848H49.957V17.6729C33.3713 17.6729 16.683 17.504 0 17.6807V26.4679H2.90036V29.3969H0V38.2806H2.89906V41.2084H0V49.9955H49.9804V41.2031H47.0801ZM2.94863 20.6385H47.0175V23.4958H2.94863V20.6385ZM2.96296 35.2446V32.3834H47.0162V35.2446H2.96296ZM44.0806 38.2702V41.1601H41.205V38.2702H44.0806ZM38.1821 38.2702V41.1679H11.7971V38.2702H38.1821ZM8.78066 38.2702V41.1614H5.91159V38.2702H8.78066ZM5.89854 29.3852V26.5161H8.77935V29.3852H5.89854ZM11.7906 29.3852V26.494H38.1977V29.3852H11.7906ZM41.2102 29.3852V26.5161H44.0793V29.3852H41.2102ZM47.0318 47.0247H2.96296V44.1661H47.0318V47.0247Z" fill="url(#paint0_linear_1004_44413)"/>
<path fill-rule="evenodd" clip-rule="evenodd" d="M2.86661 17.6311C3.01006 17.5867 3.08831 17.4707 3.12743 17.2398C3.40308 15.5977 4.10406 14.0563 5.16057 12.7693C5.58018 12.2582 6.0338 11.7747 6.48729 11.2914C6.68636 11.0793 6.8854 10.8671 7.08154 10.6527L6.79072 10.4623C5.51599 9.63413 4.48333 8.48313 3.79777 7.12637C2.88389 5.36177 2.9092 3.49609 2.93479 1.61016C2.94195 1.08204 2.94914 0.55234 2.93573 0.0228246C3.33451 0.0228246 3.72844 0.0170123 4.11871 0.0112539C5.0226 -0.00208295 5.90693 -0.0151312 6.7868 0.0449845C7.64505 0.0983041 8.49128 0.273961 9.29985 0.566633C12.6306 1.81468 14.6454 4.80113 14.7002 8.45266C14.7054 8.78652 14.7511 8.94823 15.1488 9.02387C17.1833 9.40598 19.0543 10.3956 20.5152 11.8622C21.976 13.3289 22.9582 15.2038 23.3322 17.2398C23.3726 17.4641 23.4496 17.5789 23.593 17.6311H20.3679C20.1397 14.5442 16.5482 11.6556 13.1157 11.773C9.60632 11.8929 6.09562 14.8233 6.10345 17.6311H2.86661ZM5.91044 2.99101C9.0951 2.58151 12.0829 5.55621 11.7242 8.74609C9.11989 9.22601 5.61701 6.83686 5.91044 2.99101Z" fill="url(#paint1_linear_1004_44413)"/>
<path d="M29.4212 12.1616C29.5881 14.0265 30.2689 15.7192 31.3122 17.2725C31.4158 17.4463 31.5811 17.5748 31.7751 17.6324H28.0766C28.0536 17.578 28.0335 17.5298 28.0153 17.4861C27.9707 17.3787 27.9373 17.2985 27.8993 17.2216C27.1895 15.794 26.721 14.2587 26.513 12.678C26.007 8.73176 28.8748 4.96546 32.8145 4.49728C33.3543 4.43357 33.9025 4.45031 34.4705 4.46766C34.7396 4.47588 35.0131 4.48424 35.2924 4.48424V0.0293605H38.2345V4.52858C38.3057 4.52203 38.3705 4.51651 38.4308 4.51137C38.5626 4.50013 38.673 4.49073 38.7822 4.47641C42.5055 3.99649 46.0735 6.51998 46.8743 10.1963C47.2916 12.116 46.8795 13.943 46.2404 15.7375C46.0862 16.1688 45.8994 16.5894 45.704 17.0297C45.6169 17.2258 45.5281 17.4258 45.4397 17.6324H41.7269C41.9232 17.5728 42.0896 17.4409 42.1924 17.2633C43.1927 15.7662 43.8552 14.14 44.0574 12.3455C44.2543 10.5954 43.6374 9.16082 42.1964 8.15796C40.7553 7.15509 39.1773 7.04163 37.6385 7.89713C36.976 8.27141 36.5169 8.27272 35.8557 7.89713C34.3351 7.02859 32.778 7.18246 31.3435 8.14621C29.9311 9.0943 29.2699 10.4662 29.4212 12.1616Z" fill="url(#paint2_linear_1004_44413)"/>
</g>
<defs>
<linearGradient id="paint0_linear_1004_44413" x1="24.9902" y1="17.6001" x2="24.9902" y2="49.9955" gradientUnits="userSpaceOnUse">
<stop stop-color="white" stop-opacity="0.8"/>
<stop offset="1" stop-color="white" stop-opacity="0.25"/>
</linearGradient>
<linearGradient id="paint1_linear_1004_44413" x1="24.9548" y1="0" x2="24.9548" y2="17.6324" gradientUnits="userSpaceOnUse">
<stop stop-color="white" stop-opacity="0.8"/>
<stop offset="1" stop-color="white" stop-opacity="0.15"/>
</linearGradient>
<linearGradient id="paint2_linear_1004_44413" x1="24.9548" y1="0" x2="24.9548" y2="17.6324" gradientUnits="userSpaceOnUse">
<stop stop-color="white" stop-opacity="0.8"/>
<stop offset="1" stop-color="white" stop-opacity="0.15"/>
</linearGradient>
<clipPath id="clip0_1004_44413">
<rect width="50" height="50" fill="white"/>
</clipPath>
</defs>
</svg>
