<svg width="24" height="24" viewBox="0 0 24 24" fill="none" xmlns="http://www.w3.org/2000/svg">
<path d="M10.7143 12.0001C10.7143 12.3411 10.8498 12.6681 11.0909 12.9092C11.332 13.1503 11.659 13.2858 12 13.2858C12.341 13.2858 12.668 13.1503 12.9091 12.9092C13.1502 12.6681 13.2857 12.3411 13.2857 12.0001C13.2857 11.6591 13.1502 11.3321 12.9091 11.091C12.668 10.8499 12.341 10.7144 12 10.7144C11.659 10.7144 11.332 10.8499 11.0909 11.091C10.8498 11.3321 10.7143 11.6591 10.7143 12.0001ZM16.0714 12.0001C16.0714 12.3411 16.2068 12.6681 16.448 12.9092C16.6891 13.1503 17.0161 13.2858 17.3571 13.2858C17.6981 13.2858 18.0251 13.1503 18.2662 12.9092C18.5073 12.6681 18.6428 12.3411 18.6428 12.0001C18.6428 11.6591 18.5073 11.3321 18.2662 11.091C18.0251 10.8499 17.6981 10.7144 17.3571 10.7144C17.0161 10.7144 16.6891 10.8499 16.448 11.091C16.2068 11.3321 16.0714 11.6591 16.0714 12.0001ZM5.35723 12.0001C5.35723 12.3411 5.49268 12.6681 5.7338 12.9092C5.97492 13.1503 6.30194 13.2858 6.64293 13.2858C6.98391 13.2858 7.31094 13.1503 7.55205 12.9092C7.79317 12.6681 7.92862 12.3411 7.92862 12.0001C7.92862 11.6591 7.79317 11.3321 7.55205 11.091C7.31094 10.8499 6.98391 10.7144 6.64293 10.7144C6.30194 10.7144 5.97492 10.8499 5.7338 11.091C5.49268 11.3321 5.35723 11.6591 5.35723 12.0001ZM23.0677 7.35015C22.4624 5.91178 21.5945 4.62072 20.4883 3.51181C19.3898 2.40931 18.0857 1.53296 16.6499 0.932375C15.1767 0.313633 13.6125 0.000244141 12 0.000244141H11.9464C10.3232 0.00827975 8.75094 0.329704 7.27238 0.961839C5.84889 1.56859 4.55705 2.44649 3.46886 3.54663C2.37334 4.65286 1.51353 5.93856 0.918891 7.37158C0.302827 8.85549 -0.00788365 10.4331 0.000151961 12.0563C0.00924091 13.9165 0.449321 15.7493 1.28585 17.4107V21.4821C1.28585 21.8089 1.41566 22.1223 1.64673 22.3534C1.8778 22.5844 2.1912 22.7142 2.51798 22.7142H6.59203C8.25352 23.5508 10.0863 23.9909 11.9464 23.9999H12.0027C13.6071 23.9999 15.1634 23.6892 16.6285 23.0812C18.0571 22.4878 19.3562 21.6216 20.4535 20.5312C21.5597 19.4357 22.4302 18.1554 23.0383 16.7277C23.6704 15.2492 23.9918 13.6769 23.9999 12.0537C24.0079 10.4224 23.6918 8.83942 23.0677 7.35015ZM19.0204 19.0821C17.1428 20.9411 14.6518 21.9643 12 21.9643H11.9545C10.3393 21.9562 8.73486 21.5544 7.31792 20.7991L7.09292 20.6786H3.32154V16.9072L3.201 16.6822C2.44566 15.2652 2.04388 13.6608 2.03584 12.0456C2.02513 9.37513 3.04565 6.86801 4.91795 4.97965C6.78757 3.09128 9.28664 2.04665 11.9571 2.03593H12.0027C13.3419 2.03593 14.641 2.29575 15.8651 2.81003C17.0598 3.31092 18.1312 4.03144 19.0526 4.95286C19.9713 5.8716 20.6945 6.94569 21.1954 8.14032C21.7151 9.3778 21.9749 10.6903 21.9695 12.0456C21.9534 14.7135 20.9061 17.2125 19.0204 19.0821Z" fill="#00CD69"/>
</svg>
