<svg width="50" height="51" viewBox="0 0 50 51" fill="none" xmlns="http://www.w3.org/2000/svg">
<g clip-path="url(#clip0_1004_44401)">
<path fill-rule="evenodd" clip-rule="evenodd" d="M24.9673 43.6043H7.39278V25.996H24.9673V43.6043ZM22.0482 28.9476H10.3236V40.6448H22.0482V28.9476Z" fill="url(#paint0_linear_1004_44401)"/>
<path d="M38.2018 33.355V36.2356H35.3316V33.355H38.2018Z" fill="url(#paint1_linear_1004_44401)"/>
<path fill-rule="evenodd" clip-rule="evenodd" d="M44.1436 18.5456V18.6513L50 18.6461V50.9647H4.9786C4.88918 50.9303 4.79769 50.9015 4.70468 50.8786C2.69341 50.5003 1.27298 49.363 0.447343 47.5004C0.310229 47.1912 0.219315 46.8611 0.12846 46.5312C0.0870809 46.3809 0.0457137 46.2307 0 46.0826V14.9366C0.0356546 14.8472 0.0657046 14.7558 0.0899908 14.6627C0.438681 12.8627 1.39995 11.4997 2.97384 10.5736C3.93773 10.0141 4.99293 9.79102 6.10422 9.79102H8.78331V12.7805C8.43828 12.7805 8.0945 12.7742 7.75191 12.7679C6.98329 12.7538 6.22072 12.7398 5.46377 12.7975C4.07728 12.9031 2.98949 14.1657 2.93862 15.5809C2.88905 16.9622 3.8673 18.35 5.21858 18.5156C6.02319 18.6141 6.84282 18.5906 7.67225 18.5668C8.04082 18.5563 8.41132 18.5456 8.78331 18.5456H11.7963V18.6083H17.6658V18.5456H20.6162V18.5978H32.3081V18.5456H35.3081V18.5965H41.1436V18.5456H44.1436ZM5.86291 48.0338H47.0314L47.0405 42.1526H46.4444C45.3849 42.1526 44.326 42.1548 43.2675 42.157C41.1516 42.1613 39.0372 42.1657 36.9229 42.1526C32.8573 42.1344 29.7243 39.2323 29.4204 35.2397C29.1113 31.1768 32.466 27.5038 36.5811 27.4568C38.8949 27.4302 41.2093 27.4359 43.5235 27.4416C44.4955 27.444 45.4674 27.4464 46.4392 27.4464H47.0327V21.5769H46.3805C33.139 21.5656 19.8966 21.5656 6.65333 21.5769C5.38292 21.5782 4.15559 21.4621 2.94257 20.7669V21.1895C2.93735 29.1937 2.93735 37.1984 2.94257 45.2035C2.94387 46.9121 4.10859 48.0338 5.86291 48.0338ZM47.0196 39.1814V30.4085H44.1593V39.1814H47.0196ZM41.1501 39.1475V30.4085L41.1489 30.4033C40.6369 30.4033 40.1274 30.3931 39.6204 30.383C38.5231 30.3611 37.4374 30.3395 36.3633 30.4215C35.2551 30.5089 34.2222 31.017 33.4767 31.8416C32.7311 32.6662 32.3293 33.7448 32.3538 34.8562C32.365 35.9734 32.804 37.0437 33.5804 37.847C34.3568 38.6503 35.4115 39.1255 36.5276 39.1749C37.5866 39.2302 38.6496 39.2201 39.7128 39.2101C40.1293 39.2062 40.5459 39.2022 40.9623 39.2022C41.0271 39.1927 41.0903 39.1742 41.1501 39.1475Z" fill="url(#paint2_linear_1004_44401)"/>
<path d="M11.8081 18.5456V3.93717H26.4348V6.85366H17.6723V18.5469H20.6227V9.821H32.3134V18.5469H35.3133V12.7779H41.1476V18.5469H44.1475V9.80794H35.299V6.868H29.4178V0.998535H8.8303V9.78317H8.78986V18.5378L11.8081 18.5456Z" fill="url(#paint3_linear_1004_44401)"/>
</g>
<defs>
<linearGradient id="paint0_linear_1004_44401" x1="25" y1="9.79102" x2="25" y2="50.9647" gradientUnits="userSpaceOnUse">
<stop stop-color="white" stop-opacity="0.8"/>
<stop offset="1" stop-color="white" stop-opacity="0.25"/>
</linearGradient>
<linearGradient id="paint1_linear_1004_44401" x1="25" y1="9.79102" x2="25" y2="50.9647" gradientUnits="userSpaceOnUse">
<stop stop-color="white" stop-opacity="0.8"/>
<stop offset="1" stop-color="white" stop-opacity="0.25"/>
</linearGradient>
<linearGradient id="paint2_linear_1004_44401" x1="25" y1="9.79102" x2="25" y2="50.9647" gradientUnits="userSpaceOnUse">
<stop stop-color="white" stop-opacity="0.8"/>
<stop offset="1" stop-color="white" stop-opacity="0.25"/>
</linearGradient>
<linearGradient id="paint3_linear_1004_44401" x1="26.4687" y1="0.998535" x2="26.4687" y2="18.5469" gradientUnits="userSpaceOnUse">
<stop stop-color="white" stop-opacity="0.8"/>
<stop offset="1" stop-color="white" stop-opacity="0.15"/>
</linearGradient>
<clipPath id="clip0_1004_44401">
<rect width="50" height="50" fill="white" transform="translate(0 0.998535)"/>
</clipPath>
</defs>
</svg>
