<svg width="150" height="50" viewBox="0 0 150 50" fill="none" xmlns="http://www.w3.org/2000/svg">
<rect width="150" height="50" rx="8" fill="white"/>
<path d="M75.2312 26.1907C72.9698 26.1907 71.1267 27.9 71.1267 30.2543C71.1267 32.5942 72.9698 34.3178 75.2312 34.3178C77.4935 34.3178 79.3366 32.5942 79.3366 30.2543C79.3357 27.9 77.4926 26.1907 75.2312 26.1907ZM75.2312 32.7184C73.9919 32.7184 72.9237 31.7027 72.9237 30.2552C72.9237 28.7924 73.9928 27.7921 75.2312 27.7921C76.4705 27.7921 77.5387 28.7924 77.5387 30.2552C77.5387 31.7018 76.4705 32.7184 75.2312 32.7184ZM66.2761 26.1907C64.0148 26.1907 62.1717 27.9 62.1717 30.2543C62.1717 32.5942 64.0148 34.3178 66.2761 34.3178C68.5385 34.3178 70.3816 32.5942 70.3816 30.2543C70.3816 27.9 68.5385 26.1907 66.2761 26.1907ZM66.2761 32.7184C65.0368 32.7184 63.9686 31.7027 63.9686 30.2552C63.9686 28.7924 65.0378 27.7921 66.2761 27.7921C67.5155 27.7921 68.5837 28.7924 68.5837 30.2552C68.5846 31.7018 67.5155 32.7184 66.2761 32.7184ZM55.6251 27.4386V29.1622H59.7767C59.6526 30.132 59.3277 30.84 58.8316 31.332C58.2278 31.932 57.2826 32.5942 55.6251 32.5942C53.0695 32.5942 51.0716 30.5466 51.0716 28.0071C51.0716 25.4675 53.0695 23.4199 55.6251 23.4199C57.0038 23.4199 58.0105 23.9588 58.7537 24.6515L59.9776 23.4352C58.9392 22.4501 57.5615 21.6963 55.6251 21.6963C52.1244 21.6963 49.1814 24.5282 49.1814 28.0071C49.1814 31.4859 52.1244 34.3178 55.6251 34.3178C57.5143 34.3178 58.9402 33.7015 60.0545 32.5474C61.2006 31.4085 61.5573 29.8071 61.5573 28.5144C61.5573 28.115 61.5265 27.7453 61.464 27.4376H55.6251V27.4386ZM99.187 28.7771C98.8466 27.8695 97.8082 26.1907 95.6863 26.1907C93.5797 26.1907 91.8289 27.8379 91.8289 30.2543C91.8289 32.5321 93.5643 34.3178 95.8872 34.3178C97.7611 34.3178 98.8456 33.1789 99.2956 32.5168L97.9015 31.5929C97.4371 32.2703 96.8016 32.7165 95.8872 32.7165C94.9738 32.7165 94.3229 32.3009 93.9047 31.4849L99.3725 29.2377L99.187 28.7771ZM93.6105 30.132C93.5643 28.5612 94.8344 27.7615 95.7488 27.7615C96.4612 27.7615 97.065 28.116 97.2669 28.6233L93.6105 30.132ZM89.1656 34.0723H90.9617V22.1282H89.1656V34.0723ZM86.2217 27.0994H86.1601C85.7573 26.6216 84.9823 26.1907 84.0074 26.1907C81.9624 26.1907 80.0885 27.9765 80.0885 30.2705C80.0885 32.5483 81.9624 34.3188 84.0074 34.3188C84.9833 34.3188 85.7573 33.8879 86.1601 33.3958H86.2217V33.9805C86.2217 35.5351 85.3852 36.3663 84.0382 36.3663C82.9383 36.3663 82.2566 35.5819 81.9778 34.9197L80.4135 35.5666C80.8625 36.6434 82.0547 37.9676 84.0382 37.9676C86.1447 37.9676 87.9263 36.7361 87.9263 33.734V26.4382H86.2226V27.0994H86.2217ZM84.1622 32.7184C82.9229 32.7184 81.8855 31.6865 81.8855 30.2705C81.8855 28.8383 82.9229 27.7921 84.1622 27.7921C85.3852 27.7921 86.3457 28.8383 86.3457 30.2705C86.3457 31.6865 85.3852 32.7184 84.1622 32.7184ZM107.604 22.1282H103.305V34.0723H105.098V29.5472H107.603C109.591 29.5472 111.547 28.1169 111.547 25.8382C111.547 23.5594 109.592 22.1282 107.604 22.1282ZM107.65 27.8848H105.098V23.7906H107.65C108.991 23.7906 109.752 24.8942 109.752 25.8382C109.752 26.7631 108.991 27.8848 107.65 27.8848ZM118.737 26.1697C117.438 26.1697 116.093 26.7382 115.537 27.9985L117.129 28.6587C117.469 27.9985 118.104 27.7825 118.768 27.7825C119.696 27.7825 120.639 28.3357 120.654 29.3189V29.4421C120.329 29.2577 119.633 28.9816 118.783 28.9816C117.067 28.9816 115.319 29.9189 115.319 31.6703C115.319 33.2687 116.727 34.2977 118.304 34.2977C119.509 34.2977 120.175 33.7598 120.592 33.1292H120.654V34.0512H122.386V29.4718C122.387 27.3526 120.793 26.1697 118.737 26.1697ZM118.52 32.7155C117.934 32.7155 117.113 32.4232 117.113 31.7008C117.113 30.7788 118.134 30.4253 119.016 30.4253C119.804 30.4253 120.176 30.5944 120.654 30.8247C120.515 31.9321 119.556 32.7155 118.52 32.7155ZM128.695 26.4306L126.639 31.6091H126.577L124.443 26.4306H122.51L125.711 33.6681L123.886 37.6944H125.757L130.69 26.4306H128.695ZM112.537 34.0723H114.33V22.1282H112.537V34.0723Z" fill="#86898C"/>
<path d="M49.54 12.6987V13.5537C50.008 13.1127 50.809 12.7797 51.61 12.7797C52.465 12.7797 53.059 13.1307 53.059 13.7967C53.059 14.3997 52.519 14.8497 51.7 14.8497H50.755V15.5787H51.736C52.537 15.5787 53.266 15.9027 53.266 16.6587C53.266 17.3697 52.6 17.8197 51.646 17.8197C50.836 17.8197 49.954 17.4867 49.486 17.0457V17.9007C49.81 18.2247 50.737 18.5667 51.691 18.5667C53.113 18.5667 54.085 17.7657 54.085 16.6857C54.085 15.7227 53.347 15.2367 52.798 15.1467C53.329 15.0117 53.878 14.5797 53.878 13.7697C53.878 12.7167 52.969 12.0327 51.655 12.0327C50.71 12.0327 49.864 12.3747 49.54 12.6987Z" fill="#86898C"/>
<path d="M59.1548 18.4497V17.8557C59.0918 17.8917 59.0108 17.9097 58.9208 17.9097C58.7138 17.9097 58.5788 17.8017 58.5788 17.5767V15.4617C58.5788 14.4717 57.8948 13.8327 56.7698 13.8327C56.0318 13.8327 55.4468 14.1027 55.1768 14.3367V15.1017C55.5188 14.7867 56.1218 14.5437 56.7068 14.5437C57.3728 14.5437 57.8138 14.8677 57.8138 15.5067V15.9297C57.5708 15.8397 57.2288 15.7587 56.7338 15.7587C55.7168 15.7587 54.8978 16.2717 54.8978 17.1717C54.8978 18.0447 55.6178 18.5667 56.4998 18.5667C57.1748 18.5667 57.5708 18.3147 57.8318 17.9637C57.9128 18.3417 58.2728 18.5667 58.6868 18.5667C58.9118 18.5667 59.0558 18.5037 59.1548 18.4497ZM55.6808 17.1717C55.6808 16.6587 56.1848 16.3887 56.7698 16.3887C57.2018 16.3887 57.5438 16.4607 57.8138 16.5507V17.3607C57.5618 17.6757 57.2018 17.8917 56.6168 17.8917C56.0318 17.8917 55.6808 17.6127 55.6808 17.1717Z" fill="#86898C"/>
<path d="M60.0371 18.4677H60.8111V14.6247H63.1151V13.9317H60.0371V18.4677Z" fill="#86898C"/>
<path d="M64.0713 20.1867H64.8453V17.8917C65.0883 18.2337 65.5203 18.5667 66.2313 18.5667C67.2843 18.5667 68.1933 17.7117 68.1933 16.1997C68.1933 14.6877 67.2843 13.8327 66.2313 13.8327C65.4843 13.8327 65.0523 14.1927 64.8183 14.5617V13.9317H64.0713V20.1867ZM64.8453 17.2617V15.1377C65.1423 14.7687 65.5923 14.5347 66.1053 14.5347C66.9063 14.5347 67.4103 15.2097 67.4103 16.1997C67.4103 17.1987 66.9063 17.8647 66.1053 17.8647C65.5923 17.8647 65.1423 17.6307 64.8453 17.2617Z" fill="#86898C"/>
<path d="M72.1739 13.9317L70.8419 17.4957L69.5189 13.9317H68.6819L70.4189 18.4317C70.0679 19.1877 69.7169 19.6287 69.1409 19.6287C68.9429 19.6287 68.8079 19.5837 68.7089 19.5207V20.2317C68.7989 20.2767 68.9969 20.3397 69.2399 20.3397C70.2119 20.3397 70.8059 19.5027 71.2919 18.2517L72.9749 13.9317H72.1739Z" fill="#86898C"/>
<path d="M73.6304 14.3097V15.0837C73.9274 14.8047 74.5754 14.5257 75.1694 14.5257C75.7904 14.5257 76.1774 14.7597 76.1774 15.1827C76.1774 15.5877 75.8174 15.8217 75.2594 15.8217H74.5934V16.4877H75.3314C75.9794 16.4877 76.3574 16.7127 76.3574 17.1537C76.3574 17.6487 75.8894 17.8737 75.2054 17.8737C74.5934 17.8737 73.9004 17.5857 73.5584 17.2527V18.0357C73.8374 18.3057 74.4584 18.5667 75.2324 18.5667C76.2764 18.5667 77.1314 18.0717 77.1314 17.1627C77.1314 16.5237 76.6274 16.1547 76.1774 16.0917C76.5914 15.9747 76.9514 15.6507 76.9514 15.0927C76.9514 14.3457 76.2944 13.8327 75.2324 13.8327C74.5844 13.8327 73.9094 14.0577 73.6304 14.3097Z" fill="#86898C"/>
<path d="M82.0381 13.9317H81.2821L78.9691 17.2887V13.9317H78.2041V18.4677H78.9601L81.2731 15.1017V18.4677H82.0381V13.9317Z" fill="#86898C"/>
<path d="M82.9941 14.6247H84.5601V18.4677H85.3341V14.6247H86.9091V13.9317H82.9941V14.6247Z" fill="#86898C"/>
<path d="M87.4001 16.1727C87.4001 17.6217 88.3901 18.5667 89.8121 18.5667C90.5501 18.5667 91.1081 18.3237 91.3871 18.0897V17.3067C91.0451 17.6037 90.5321 17.8557 89.8571 17.8557C88.8221 17.8557 88.2101 17.1447 88.2101 16.4247H91.4411V15.9297C91.4411 14.7237 90.6761 13.8327 89.4881 13.8327C88.2641 13.8327 87.4001 14.7777 87.4001 16.1727ZM88.2101 15.7767C88.2821 15.0567 88.7501 14.5257 89.4791 14.5257C90.1991 14.5257 90.6401 15.0927 90.6761 15.7767H88.2101Z" fill="#86898C"/>
<path d="M94.5518 18.4677H96.6578C97.6298 18.4677 98.1788 17.9007 98.1788 17.1717C98.1788 16.5237 97.7558 16.1547 97.3238 16.0467C97.7018 15.9297 97.9898 15.6057 97.9898 15.0927C97.9898 14.4447 97.5128 13.9317 96.5678 13.9317H94.5518V18.4677ZM95.3168 17.7927V16.4607H96.5948C97.0808 16.4607 97.4048 16.6947 97.4048 17.1267C97.4048 17.5587 97.0808 17.7927 96.5948 17.7927H95.3168ZM95.3168 15.8127V14.5887H96.4958C96.9368 14.5887 97.2248 14.8137 97.2248 15.2007C97.2248 15.5877 96.9368 15.8127 96.4958 15.8127H95.3168Z" fill="#86898C"/>
<path fill-rule="evenodd" clip-rule="evenodd" d="M19.4771 13.0403C19.3692 13.292 19.3098 13.5982 19.3098 13.9527V35.0835C19.3098 35.4389 19.3693 35.7451 19.4774 35.9968L31.0269 24.5179L19.4771 13.0403ZM20.1753 36.713C20.6014 36.8849 21.1526 36.8234 21.7529 36.4852L35.3455 28.8095L31.7362 25.2228L20.1753 36.713ZM36.2507 28.2993L40.5023 25.8988C41.8455 25.1392 41.8455 23.8981 40.5023 23.1394L36.2489 20.7376L32.4455 24.5178L36.2507 28.2993ZM35.3443 20.2268L21.7529 12.5521C21.1525 12.2131 20.6012 12.152 20.1751 12.3241L31.7361 23.8129L35.3443 20.2268Z" fill="#86898C"/>
</svg>
