<svg width="150" height="50" viewBox="0 0 150 50" fill="none" xmlns="http://www.w3.org/2000/svg">
<rect width="150" height="50" rx="8" fill="white"/>
<path d="M97.5757 23.181V25.5562H96.0869V27.1138H97.5757V32.4064C97.5757 34.2136 98.3932 34.9365 100.45 34.9365C100.811 34.9365 101.156 34.8934 101.457 34.8418V33.3014C101.199 33.3272 101.035 33.3444 100.751 33.3444C99.8304 33.3444 99.4259 32.9141 99.4259 31.9331V27.1138H101.457V25.5562H99.4259V23.181H97.5757Z" fill="#86898C"/>
<path d="M106.696 35.0656C109.433 35.0656 111.111 33.2325 111.111 30.1947C111.111 27.1741 109.424 25.3325 106.696 25.3325C103.96 25.3325 102.273 27.1741 102.273 30.1947C102.273 33.2325 103.951 35.0656 106.696 35.0656ZM106.696 33.4219C105.087 33.4219 104.183 32.2429 104.183 30.1947C104.183 28.1637 105.087 26.9762 106.696 26.9762C108.297 26.9762 109.209 28.1637 109.209 30.1947C109.209 32.2343 108.297 33.4219 106.696 33.4219Z" fill="#86898C"/>
<path d="M112.547 34.8848H114.397V29.3513C114.397 28.0347 115.387 27.1483 116.79 27.1483C117.117 27.1483 117.667 27.2085 117.822 27.2601V25.4357C117.624 25.3841 117.271 25.3583 116.996 25.3583C115.774 25.3583 114.733 26.0295 114.466 26.9503H114.328V25.5132H112.547V34.8848Z" fill="#86898C"/>
<path d="M122.416 26.9073C123.785 26.9073 124.68 27.8625 124.723 29.3341H119.99C120.093 27.8712 121.048 26.9073 122.416 26.9073ZM124.714 32.3547C124.37 33.0862 123.604 33.4907 122.485 33.4907C121.005 33.4907 120.05 32.4494 119.99 30.8057V30.7024H126.607V30.057C126.607 27.1138 125.032 25.3325 122.425 25.3325C119.783 25.3325 118.105 27.2343 118.105 30.2291C118.105 33.2239 119.749 35.0656 122.434 35.0656C124.576 35.0656 126.074 34.0329 126.495 32.3547H124.714Z" fill="#86898C"/>
<path d="M85.4421 31.424C85.5848 33.7253 87.5025 35.197 90.3568 35.197C93.4073 35.197 95.3161 33.6539 95.3161 31.1921C95.3161 29.2566 94.2279 28.1862 91.5877 27.5708L90.1695 27.2229C88.4926 26.8304 87.8147 26.3042 87.8147 25.3855C87.8147 24.2259 88.8672 23.4677 90.446 23.4677C91.9445 23.4677 92.9791 24.2081 93.1665 25.3944H95.1109C94.995 23.2269 93.0862 21.7017 90.4727 21.7017C87.6631 21.7017 85.7899 23.2269 85.7899 25.5193C85.7899 27.4102 86.8514 28.5341 89.1794 29.0782L90.8384 29.4796C92.5421 29.8809 93.2913 30.4696 93.2913 31.4508C93.2913 32.5925 92.1139 33.422 90.5084 33.422C88.7869 33.422 87.5917 32.646 87.4222 31.424H85.4421Z" fill="#86898C"/>
<path d="M66.2755 25.3583C65.0019 25.3583 63.9003 25.9951 63.3324 27.0622H63.1947V25.5132H61.4133V38.0001H63.2635V33.4649H63.4098C63.9003 34.4546 64.9588 35.0397 66.2927 35.0397C68.6593 35.0397 70.1653 33.1723 70.1653 30.1947C70.1653 27.2171 68.6593 25.3583 66.2755 25.3583ZM65.7506 33.3788C64.2015 33.3788 63.2291 32.1568 63.2291 30.2033C63.2291 28.2412 64.2015 27.0192 65.7592 27.0192C67.3254 27.0192 68.2635 28.2154 68.2635 30.1947C68.2635 32.1826 67.3254 33.3788 65.7506 33.3788Z" fill="#86898C"/>
<path d="M76.6396 25.3583C75.366 25.3583 74.2644 25.9951 73.6964 27.0622H73.5587V25.5132H71.7774V38.0001H73.6276V33.4649H73.7739C74.2644 34.4546 75.3229 35.0397 76.6568 35.0397C79.0234 35.0397 80.5294 33.1723 80.5294 30.1947C80.5294 27.2171 79.0234 25.3583 76.6396 25.3583ZM76.1147 33.3788C74.5656 33.3788 73.5932 32.1568 73.5932 30.2033C73.5932 28.2412 74.5656 27.0192 76.1233 27.0192C77.6895 27.0192 78.6275 28.2154 78.6275 30.1947C78.6275 32.1826 77.6895 33.3788 76.1147 33.3788Z" fill="#86898C"/>
<path d="M58.0936 34.8848H60.2165L55.5694 22.0138H53.4198L48.7726 34.8848H50.8242L52.0105 31.4686H56.9162L58.0936 34.8848ZM54.392 24.3508H54.5436L56.4078 29.7917H52.5189L54.392 24.3508Z" fill="#86898C"/>
<path d="M50.054 12.666V13.521C50.522 13.08 51.323 12.747 52.124 12.747C52.979 12.747 53.573 13.098 53.573 13.764C53.573 14.367 53.033 14.817 52.214 14.817H51.269V15.546H52.25C53.051 15.546 53.78 15.87 53.78 16.626C53.78 17.337 53.114 17.787 52.16 17.787C51.35 17.787 50.468 17.454 50 17.013V17.868C50.324 18.192 51.251 18.534 52.205 18.534C53.627 18.534 54.599 17.733 54.599 16.653C54.599 15.69 53.861 15.204 53.312 15.114C53.843 14.979 54.392 14.547 54.392 13.737C54.392 12.684 53.483 12 52.169 12C51.224 12 50.378 12.342 50.054 12.666Z" fill="#86898C"/>
<path d="M59.6687 18.417V17.823C59.6057 17.859 59.5247 17.877 59.4347 17.877C59.2277 17.877 59.0927 17.769 59.0927 17.544V15.429C59.0927 14.439 58.4087 13.8 57.2837 13.8C56.5457 13.8 55.9607 14.07 55.6907 14.304V15.069C56.0327 14.754 56.6357 14.511 57.2207 14.511C57.8867 14.511 58.3277 14.835 58.3277 15.474V15.897C58.0847 15.807 57.7427 15.726 57.2477 15.726C56.2307 15.726 55.4117 16.239 55.4117 17.139C55.4117 18.012 56.1317 18.534 57.0137 18.534C57.6887 18.534 58.0847 18.282 58.3457 17.931C58.4267 18.309 58.7867 18.534 59.2007 18.534C59.4257 18.534 59.5697 18.471 59.6687 18.417ZM56.1947 17.139C56.1947 16.626 56.6987 16.356 57.2837 16.356C57.7157 16.356 58.0577 16.428 58.3277 16.518V17.328C58.0757 17.643 57.7157 17.859 57.1307 17.859C56.5457 17.859 56.1947 17.58 56.1947 17.139Z" fill="#86898C"/>
<path d="M60.5511 18.435H61.3251V14.592H63.6291V13.899H60.5511V18.435Z" fill="#86898C"/>
<path d="M64.5853 20.154H65.3593V17.859C65.6023 18.201 66.0343 18.534 66.7453 18.534C67.7983 18.534 68.7073 17.679 68.7073 16.167C68.7073 14.655 67.7983 13.8 66.7453 13.8C65.9983 13.8 65.5663 14.16 65.3323 14.529V13.899H64.5853V20.154ZM65.3593 17.229V15.105C65.6563 14.736 66.1063 14.502 66.6193 14.502C67.4203 14.502 67.9243 15.177 67.9243 16.167C67.9243 17.166 67.4203 17.832 66.6193 17.832C66.1063 17.832 65.6563 17.598 65.3593 17.229Z" fill="#86898C"/>
<path d="M72.6879 13.899L71.3559 17.463L70.0329 13.899H69.1959L70.9329 18.399C70.5819 19.155 70.2309 19.596 69.6549 19.596C69.4569 19.596 69.3219 19.551 69.2229 19.488V20.199C69.3129 20.244 69.5109 20.307 69.7539 20.307C70.7259 20.307 71.3199 19.47 71.8059 18.219L73.4889 13.899H72.6879Z" fill="#86898C"/>
<path d="M74.1444 14.277V15.051C74.4414 14.772 75.0894 14.493 75.6834 14.493C76.3044 14.493 76.6914 14.727 76.6914 15.15C76.6914 15.555 76.3314 15.789 75.7734 15.789H75.1074V16.455H75.8454C76.4934 16.455 76.8714 16.68 76.8714 17.121C76.8714 17.616 76.4034 17.841 75.7194 17.841C75.1074 17.841 74.4144 17.553 74.0724 17.22V18.003C74.3514 18.273 74.9724 18.534 75.7464 18.534C76.7904 18.534 77.6454 18.039 77.6454 17.13C77.6454 16.491 77.1414 16.122 76.6914 16.059C77.1054 15.942 77.4654 15.618 77.4654 15.06C77.4654 14.313 76.8084 13.8 75.7464 13.8C75.0984 13.8 74.4234 14.025 74.1444 14.277Z" fill="#86898C"/>
<path d="M82.5521 13.899H81.7961L79.4831 17.256V13.899H78.7181V18.435H79.4741L81.7871 15.069V18.435H82.5521V13.899Z" fill="#86898C"/>
<path d="M83.5081 14.592H85.0741V18.435H85.8481V14.592H87.4231V13.899H83.5081V14.592Z" fill="#86898C"/>
<path d="M87.9141 16.14C87.9141 17.589 88.9041 18.534 90.3261 18.534C91.0641 18.534 91.6221 18.291 91.9011 18.057V17.274C91.5591 17.571 91.0461 17.823 90.3711 17.823C89.3361 17.823 88.7241 17.112 88.7241 16.392H91.9551V15.897C91.9551 14.691 91.1901 13.8 90.0021 13.8C88.7781 13.8 87.9141 14.745 87.9141 16.14ZM88.7241 15.744C88.7961 15.024 89.2641 14.493 89.9931 14.493C90.7131 14.493 91.1541 15.06 91.1901 15.744H88.7241Z" fill="#86898C"/>
<path d="M95.0657 18.435H97.1717C98.1437 18.435 98.6927 17.868 98.6927 17.139C98.6927 16.491 98.2697 16.122 97.8377 16.014C98.2157 15.897 98.5037 15.573 98.5037 15.06C98.5037 14.412 98.0267 13.899 97.0817 13.899H95.0657V18.435ZM95.8307 17.76V16.428H97.1087C97.5947 16.428 97.9187 16.662 97.9187 17.094C97.9187 17.526 97.5947 17.76 97.1087 17.76H95.8307ZM95.8307 15.78V14.556H97.0097C97.4507 14.556 97.7387 14.781 97.7387 15.168C97.7387 15.555 97.4507 15.78 97.0097 15.78H95.8307Z" fill="#86898C"/>
<path d="M38.7336 24.3212C38.7561 22.5785 39.692 20.9295 41.1767 20.0166C40.2401 18.6789 38.6712 17.8308 37.0389 17.7797C35.298 17.597 33.6103 18.8214 32.7231 18.8214C31.8188 18.8214 30.4529 17.7978 28.982 17.8281C27.0648 17.89 25.2775 18.98 24.3448 20.6562C22.3397 24.1276 23.8353 29.2295 25.756 32.0355C26.7169 33.4096 27.84 34.9444 29.3095 34.89C30.7476 34.8303 31.2846 33.973 33.0204 33.973C34.7402 33.973 35.244 34.89 36.7434 34.8554C38.2864 34.8303 39.2586 33.4752 40.1859 32.0882C40.8763 31.1091 41.4076 30.027 41.7601 28.882C39.9467 28.1151 38.7357 26.2902 38.7336 24.3212Z" fill="#86898C"/>
<path d="M35.9016 15.9343C36.7429 14.9243 37.1574 13.6261 37.057 12.3154C35.7717 12.4504 34.5843 13.0648 33.7316 14.036C32.8978 14.985 32.4639 16.2603 32.5459 17.5209C33.8317 17.5341 35.0958 16.9365 35.9016 15.9343Z" fill="#86898C"/>
</svg>
