<svg width="50" height="50" viewBox="0 0 50 50" fill="none" xmlns="http://www.w3.org/2000/svg">
<path d="M28.8924 17.1248C28.1026 16.7201 27.262 16.416 26.3665 16.0322V16.6379C26.3665 18.5424 26.3573 20.4469 26.3756 22.3527C26.3756 22.7064 26.2385 22.8748 25.9709 23.0863C25.2869 23.6345 24.6865 23.6345 24.0038 23.0863C23.7427 22.8709 23.5953 22.7064 23.5979 22.3514C23.6161 20.285 23.607 18.2187 23.607 16.1053C18.6467 17.5503 15.7475 21.127 16.2174 26.0416C16.4694 28.6719 17.7839 30.763 19.9455 32.2981C20.0757 32.374 20.1817 32.4854 20.251 32.6192C20.3203 32.753 20.3502 32.9038 20.3371 33.0539C20.3149 34.0029 20.3293 34.9519 20.3293 35.91C21.2658 36.3101 22.2505 36.5866 23.2585 36.7324V36.2977C23.2585 34.7522 23.2232 33.204 23.2754 31.6598C23.2976 31.0071 23.1031 30.6651 22.4922 30.3832C20.6556 29.5334 19.5382 28.0597 19.1831 26.0755C18.8529 24.2272 19.3346 22.5694 20.683 21.1701C20.683 22.1399 20.6961 23.1098 20.6765 24.0797C20.6626 24.2058 20.6884 24.3332 20.7504 24.4439C20.8124 24.5546 20.9076 24.6431 21.0224 24.6971C22.2277 25.4046 23.426 26.1247 24.6173 26.8574C24.8784 27.0193 25.0729 27.0493 25.3561 26.8718C26.5283 26.1382 27.7127 25.4259 28.9093 24.735C29.2239 24.5535 29.3205 24.3434 29.3114 24.0014C29.2879 23.0615 29.3035 22.1203 29.3035 21.0291C29.5085 21.2614 29.6377 21.3894 29.7434 21.5329C30.2581 22.2232 30.6147 23.0183 30.788 23.8617C30.9613 24.7051 30.9471 25.5763 30.7463 26.4136C30.5455 27.2509 30.1632 28.0338 29.6262 28.707C29.0893 29.3801 28.4109 29.9269 27.6392 30.3088C26.9121 30.6691 26.6745 31.0502 26.7072 31.84C26.7751 33.439 26.7307 35.0433 26.7294 36.7324C27.7377 36.5849 28.7227 36.3076 29.6599 35.9074C29.6599 34.8527 29.6495 33.8084 29.673 32.7641C29.673 32.6336 29.8335 32.4613 29.9627 32.3725C32.8044 30.2957 34.1398 27.4971 33.7482 24.004C33.3958 20.8659 31.7015 18.5659 28.8924 17.1248Z" fill="url(#paint0_linear_1004_44407)"/>
<path fill-rule="evenodd" clip-rule="evenodd" d="M19.2993 11.2725C21.1051 10.526 23.0404 10.1429 24.9945 10.1451C28.9305 10.1483 32.7047 11.7124 35.489 14.4946C38.2733 17.2767 39.8405 21.0496 39.8467 24.9856C39.8507 26.9393 39.4695 28.8745 38.7251 30.6807C37.9806 32.487 36.8875 34.1288 35.5081 35.5123C34.1288 36.8957 32.4902 37.9938 30.6863 38.7436C28.8822 39.4935 26.9481 39.8804 24.9945 39.8823C23.0411 39.8842 21.1064 39.501 19.3012 38.7549C17.4959 38.0087 15.8554 36.914 14.4734 35.5335C13.0914 34.1529 11.9951 32.5136 11.247 30.7091C10.4989 28.9046 10.1137 26.9704 10.1135 25.017C10.1125 23.0629 10.4968 21.1278 11.2444 19.3224C11.9919 17.5171 13.0882 15.8768 14.4703 14.4955C15.8525 13.1142 17.4934 12.019 19.2993 11.2725ZM29.6533 35.9062V35.9349C32.311 35.354 34.7781 32.5867 36.0456 29.3481C36.0471 29.3431 36.0495 29.3381 36.052 29.3331C36.056 29.325 36.0599 29.317 36.0599 29.309C36.0709 29.2807 36.0823 29.2503 36.0933 29.221C36.1031 29.1947 36.1127 29.1693 36.1213 29.1471C36.1396 29.1001 36.1578 29.0531 36.1735 29.0061C36.1819 28.9809 36.1907 28.9553 36.1988 28.9315C36.2058 28.911 36.2124 28.8919 36.2178 28.8756C36.2229 28.8605 36.2281 28.8454 36.2335 28.8302C36.2406 28.8099 36.2477 28.7894 36.2544 28.7685C36.8001 27.1682 37.0494 25.4778 36.8862 23.8931C36.3249 18.4498 32.3019 14.2087 27.1353 13.2741C27.0165 13.2519 26.8977 13.2323 26.7789 13.214L26.6144 13.1905C26.4708 13.171 26.326 13.154 26.1811 13.1383L26.0923 13.1305C25.9252 13.1161 25.7581 13.1031 25.5884 13.0939H25.5689C25.3914 13.0796 25.2125 13.0796 25.0324 13.0796H24.9841C24.9015 13.0796 24.8193 13.0822 24.7374 13.0848C24.6561 13.0874 24.5752 13.09 24.4946 13.09H24.4045C24.2556 13.0965 24.1069 13.107 23.9594 13.12L23.8001 13.1331C23.6761 13.1461 23.5508 13.1605 23.4268 13.1762L23.1866 13.2101L23.0704 13.2297C17.8255 14.0677 13.7189 18.3088 13.091 23.8435C12.5219 28.8573 16.1808 35.0055 20.3253 35.9323V35.9088C21.2618 36.3089 22.2465 36.5854 23.2545 36.7312V36.8617H26.7228V36.7312C27.7311 36.5837 28.7161 36.3064 29.6533 35.9062Z" fill="url(#paint1_linear_1004_44407)"/>
<path fill-rule="evenodd" clip-rule="evenodd" d="M30.7514 0H19.2212C19.2194 0.353471 19.2171 0.706874 19.2148 1.06021C19.2069 2.25311 19.199 3.44524 19.2121 4.63659C19.2134 4.96815 19.1129 5.09347 18.7944 5.21487C17.6404 5.65695 16.5018 6.13164 15.3783 6.63899C15.0663 6.77866 14.9032 6.74211 14.6748 6.50845C13.949 5.76181 13.2111 5.02728 12.4726 4.29218C12.2415 4.06212 12.0103 3.83201 11.7795 3.60145C11.7045 3.5273 11.6272 3.45543 11.56 3.39299C11.5255 3.3609 11.4937 3.33129 11.4662 3.30515L3.29473 11.4805L6.7291 14.8823C6.60775 15.1942 6.48869 15.5013 6.37114 15.8045C5.94116 16.9136 5.53138 17.9705 5.10392 19.0202C5.06084 19.1272 4.82722 19.2134 4.68102 19.2134C3.32049 19.2225 1.9482 19.2225 0.581143 19.2225H0V30.8009H2.53631C2.77007 30.8009 3.00367 30.8034 3.23718 30.8059C3.70391 30.8108 4.17025 30.8157 4.63659 30.8009C4.9551 30.7905 5.06349 30.9119 5.17575 31.2043C5.62131 32.3548 6.0947 33.4934 6.59595 34.6204C6.7291 34.9206 6.73558 35.0877 6.48887 35.3279C5.67582 36.1177 4.87785 36.919 4.09388 37.7063C3.82058 37.9807 3.54899 38.2534 3.27905 38.5234L11.4962 46.734C11.6011 46.626 11.7117 46.5115 11.8265 46.3925C12.0936 46.1158 12.3836 45.8154 12.6775 45.5187C12.91 45.2845 13.1443 45.0518 13.3786 44.8191C13.826 44.3748 14.2735 43.9303 14.7087 43.4746C14.9188 43.2513 15.0755 43.267 15.3365 43.3819C16.48 43.8792 17.6313 44.3687 18.797 44.8178C19.0946 44.9313 19.1978 45.0462 19.1978 45.3582C19.1917 46.3756 19.1937 47.3947 19.1957 48.424C19.1967 48.9424 19.1978 49.4635 19.1978 49.9882H30.7788V48.8918C30.7788 48.6228 30.7784 48.3537 30.7781 48.0847C30.777 47.1654 30.7758 46.2457 30.788 45.3268C30.7893 45.1806 30.8754 44.9483 30.9838 44.9039C32.0074 44.4867 33.0379 44.0855 34.1176 43.6652C34.4465 43.5372 34.7799 43.4074 35.119 43.2748L38.5534 46.7249L46.7132 38.5639C46.6874 38.5364 46.658 38.5038 46.6257 38.4681C46.56 38.3954 46.4826 38.3098 46.4012 38.2284C46.2031 38.0297 46.0052 37.8309 45.8073 37.632C45.0403 36.8613 44.2734 36.0906 43.4942 35.3331C43.2605 35.1047 43.224 34.9428 43.3636 34.6295C43.8701 33.4887 44.3453 32.3321 44.7995 31.1678C44.9066 30.891 45.0214 30.797 45.3138 30.797C46.5439 30.8012 47.7723 30.7931 49.0042 30.785C49.3358 30.7829 49.6677 30.7807 50 30.7788V19.2499C49.6266 19.2477 49.2534 19.245 48.8801 19.2422C47.7084 19.2336 46.5372 19.225 45.366 19.233C45.0345 19.2356 44.9066 19.1351 44.7852 18.8179C44.3414 17.6657 43.8675 16.5279 43.3636 15.4044C43.224 15.0911 43.2462 14.9319 43.4851 14.6995C44.3258 13.8838 45.1535 13.0558 46.0199 12.1891C46.2834 11.9254 46.5506 11.6581 46.8228 11.3865L38.5038 3.23335C38.4054 3.33841 38.3056 3.44639 38.2043 3.55597C37.967 3.81262 37.7217 4.078 37.4674 4.33505C37.1355 4.6716 36.801 5.00529 36.4666 5.3389C36.0526 5.7519 35.6387 6.16479 35.23 6.58287C35.0538 6.76301 34.9233 6.77866 34.6857 6.67424C33.5126 6.15993 32.33 5.66782 31.1377 5.1979C30.8649 5.09086 30.7683 4.97598 30.7683 4.68358C30.7731 3.53128 30.7659 2.38182 30.7586 1.22891C30.756 0.819805 30.7534 0.41026 30.7514 0ZM12.3085 41.8038C12.0267 42.0871 11.7448 42.3705 11.4623 42.6548L7.42225 38.6004L10.5211 35.5185C10.4486 35.3997 10.3851 35.2923 10.3259 35.192C10.2412 35.0486 10.1652 34.92 10.0838 34.794C8.82938 32.8859 7.95783 30.7521 7.51753 28.5114C7.41441 27.9775 7.20551 27.8417 6.6899 27.8587C5.81136 27.8875 4.93217 27.8819 4.0406 27.8763C3.67767 27.8741 3.31269 27.8718 2.94487 27.8718V22.1426H6.51623C7.35055 22.1426 7.36563 22.1426 7.54883 21.3046C8.02253 19.1222 8.89281 17.0454 10.1164 15.1773C10.182 15.0773 10.2431 14.9754 10.3055 14.8716C10.3611 14.7789 10.4178 14.6846 10.4794 14.5886L7.39484 11.5197L11.4518 7.47311C11.9262 7.94748 12.4153 8.44037 12.9138 8.94271C13.4318 9.46465 13.9598 9.99679 14.492 10.5289C14.7017 10.4028 14.903 10.2801 15.0991 10.1606C15.4998 9.91623 15.879 9.68506 16.2646 9.46507C17.9079 8.53203 19.6922 7.87291 21.5474 7.51358C21.9821 7.42873 22.1674 7.28645 22.1491 6.79433C22.1176 5.89353 22.1236 4.99273 22.1298 4.07834C22.1323 3.70611 22.1348 3.33164 22.1348 2.954H27.8522V6.37446C27.8522 7.35702 27.8522 7.37318 28.7855 7.57885C30.9497 8.05996 33.0085 8.92993 34.8619 10.1465C34.9799 10.224 35.1003 10.2979 35.2247 10.3743C35.2846 10.4111 35.3455 10.4485 35.4075 10.4871L38.4738 7.40261L42.5204 11.457L39.4593 14.4946C39.5153 14.5874 39.5657 14.6725 39.6127 14.7521C39.7073 14.9118 39.7886 15.0492 39.8757 15.1825C41.1493 17.1169 42.0335 19.2811 42.4786 21.5539C42.5713 22.0355 42.771 22.1687 43.2462 22.1543C44.1413 22.1301 45.037 22.1345 45.9458 22.139C46.3081 22.1408 46.6724 22.1426 47.0395 22.1426V27.8587H43.6769C42.6222 27.8587 42.6196 27.8587 42.3899 28.8847C41.944 30.8735 41.1622 32.7717 40.0781 34.4977C39.9073 34.7709 39.7387 35.0441 39.5636 35.3279L39.5064 35.4206C40.2478 36.1583 40.9833 36.8889 41.7084 37.609C42.0083 37.9069 42.3065 38.2031 42.6026 38.4973L38.5351 42.5308L35.5002 39.4724C35.4033 39.5311 35.3129 39.5852 35.2274 39.6365C35.0293 39.7553 34.8569 39.8586 34.6883 39.9671C32.8022 41.1947 30.6976 42.0483 28.4892 42.4812C27.9488 42.5843 27.8209 42.7997 27.8365 43.3114C27.8644 44.1916 27.8592 45.0731 27.8539 45.9668C27.8517 46.3269 27.8496 46.689 27.8496 47.0538H22.127V43.7905C22.127 42.6486 22.1257 42.6483 21.0066 42.3874L21.0057 42.3872C19.0374 41.9293 17.1599 41.1443 15.4514 40.065C15.2671 39.9485 15.0816 39.8347 14.8927 39.7188C14.7873 39.6541 14.6809 39.5888 14.5729 39.522C13.8139 40.2905 13.0618 41.0466 12.3085 41.8038Z" fill="url(#paint2_linear_1004_44407)"/>
<defs>
<linearGradient id="paint0_linear_1004_44407" x1="24.9915" y1="16.0322" x2="24.9915" y2="36.7324" gradientUnits="userSpaceOnUse">
<stop stop-color="white" stop-opacity="0.8"/>
<stop offset="1" stop-color="white" stop-opacity="0.15"/>
</linearGradient>
<linearGradient id="paint1_linear_1004_44407" x1="25" y1="0" x2="25" y2="49.9882" gradientUnits="userSpaceOnUse">
<stop stop-color="white" stop-opacity="0.8"/>
<stop offset="1" stop-color="white" stop-opacity="0.25"/>
</linearGradient>
<linearGradient id="paint2_linear_1004_44407" x1="25" y1="0" x2="25" y2="49.9882" gradientUnits="userSpaceOnUse">
<stop stop-color="white" stop-opacity="0.8"/>
<stop offset="1" stop-color="white" stop-opacity="0.25"/>
</linearGradient>
</defs>
</svg>
