<svg width="16" height="20" viewBox="0 0 16 20" fill="none" xmlns="http://www.w3.org/2000/svg">
<path d="M13.85 8.03842V8.0385C13.85 10.7478 12.346 13.2143 10.7586 15.0508C10.091 15.8195 9.36712 16.5375 8.59306 17.199L8.59302 17.199C8.35982 17.3984 8.15828 17.5618 8.00009 17.6859C7.84195 17.5617 7.64007 17.3983 7.40699 17.199L7.40695 17.199C6.63285 16.5375 5.90897 15.8194 5.24128 15.0507C3.65397 13.2142 2.15 10.7477 2.15 8.0385C2.15 6.47552 2.7674 4.97756 3.8649 3.87324L3.7585 3.7675L3.86496 3.87317C4.40657 3.32749 5.05075 2.89433 5.76042 2.59859C6.4701 2.30286 7.23125 2.1504 8.00008 2.15C9.55001 2.15002 11.0377 2.76902 12.1351 3.87324C13.2343 4.98069 13.8508 6.47804 13.85 8.03842ZM8.49572 18.9428C8.54264 18.908 8.60325 18.8626 8.67537 18.807L7.416 18.688L7.32444 18.8068C7.32455 18.8069 7.32466 18.807 7.32476 18.8071C7.41597 18.8773 7.5081 18.9464 7.60115 19.0142L7.60112 19.0143L7.60452 19.0166L7.61691 19.0251L7.61792 19.0259L7.6296 19.035L7.63554 19.038C7.7431 19.1106 7.87002 19.1496 8 19.1496C8.12999 19.1496 8.2569 19.1106 8.36446 19.038L8.367 19.0367L8.37602 19.0304L8.38102 19.0269L8.3811 19.027L8.38626 19.023L8.39028 19.02L8.49717 18.9449L8.49572 18.9428ZM13.0574 2.95726C12.395 2.28995 11.6072 1.76023 10.7392 1.39858C9.87128 1.03692 8.94037 0.850479 8.00008 0.85L7.99994 0.85C7.05968 0.850412 6.12879 1.03677 5.26084 1.39834C4.39289 1.75991 3.60501 2.28957 2.94255 2.95682L2.94254 2.95683C1.60136 4.30794 0.849118 6.13475 0.850001 8.0385L13.0574 2.95726ZM6.15 8C6.15 7.50935 6.34491 7.03879 6.69185 6.69185C7.0388 6.34491 7.50935 6.15 8 6.15C8.49065 6.15 8.96121 6.34491 9.30815 6.69185C9.65509 7.03879 9.85 7.50935 9.85 8C9.85 8.49065 9.65509 8.96121 9.30815 9.30815C8.96121 9.65509 8.49065 9.85 8 9.85C7.50935 9.85 7.0388 9.65509 6.69185 9.30815C6.34491 8.96121 6.15 8.49065 6.15 8ZM8 4.85C7.16457 4.85 6.36335 5.18187 5.77261 5.77261C5.18187 6.36335 4.85 7.16457 4.85 8C4.85 8.83543 5.18187 9.63665 5.77261 10.2274C6.36335 10.8181 7.16457 11.15 8 11.15C8.83543 11.15 9.63665 10.8181 10.2274 10.2274C10.8181 9.63665 11.15 8.83543 11.15 8C11.15 7.16457 10.8181 6.36335 10.2274 5.77261C9.63665 5.18187 8.83543 4.85 8 4.85Z" fill="#86898C" stroke="#86898C" stroke-width="0.3"/>
</svg>
