<svg width="220" height="40" viewBox="0 0 220 40" fill="none" xmlns="http://www.w3.org/2000/svg">
<g clip-path="url(#clip0_4005_87529)">
<path d="M66.863 0.731445H69.3033L73.2314 11.4742H70.775L70.0044 9.26135H66.1084L65.3378 11.4742H62.9296L66.863 0.731445ZM69.389 7.32444L68.0511 3.4024L66.7265 7.32444H69.389Z" fill="black"/>
<path d="M74.5772 13.8852V11.9483C75.3704 12.5459 76.3379 12.866 77.3306 12.8592C78.4009 12.8592 79.4712 12.3609 79.4712 10.9115V10.1936C79.2277 10.5552 78.897 10.8497 78.5098 11.0496C78.1225 11.2495 77.6912 11.3485 77.2557 11.3375C75.3826 11.3375 73.8975 9.87208 73.8975 7.38598C73.8975 4.89988 75.3772 3.40232 77.2583 3.40232C77.7243 3.38964 78.185 3.50349 78.5916 3.73177C78.9981 3.96006 79.3354 4.29427 79.5676 4.69895V3.58717H81.7243V10.9571C81.7243 13.4137 79.9689 14.6809 77.6892 14.6809C76.3325 14.6809 75.3318 14.3755 74.5772 13.8852ZM77.8658 9.49167C78.167 9.4904 78.4648 9.42748 78.7409 9.30678C79.017 9.18607 79.2655 9.01014 79.4712 8.78977V5.96612C79.2646 5.74803 79.0156 5.57466 78.7395 5.45671C78.4633 5.33875 78.166 5.27871 77.8658 5.28029C76.8329 5.28029 76.172 6.08399 76.172 7.38598C76.172 8.68797 76.8249 9.49167 77.8658 9.49167Z" fill="black"/>
<path d="M83.6161 3.58705H85.7728V4.9453C85.9516 4.49874 86.2662 4.1198 86.672 3.8621C87.0777 3.6044 87.5542 3.481 88.0339 3.50936C88.2501 3.5053 88.4652 3.54164 88.6681 3.61652V5.72221C88.3742 5.64177 88.071 5.60034 87.7663 5.59897C86.8271 5.59897 86.225 5.89098 85.8718 6.30087V11.474H83.6215L83.6161 3.58705Z" fill="black"/>
<path d="M97.5384 7.53871C97.5384 10.0248 95.783 11.659 93.4738 11.659C91.1646 11.659 89.3932 10.0248 89.3932 7.53871C89.3932 5.0526 91.1325 3.40234 93.4738 3.40234C95.8151 3.40234 97.5384 5.04992 97.5384 7.53871ZM93.4738 9.73548C94.5441 9.73548 95.2907 8.81926 95.2907 7.53871C95.2907 6.25815 94.5521 5.32586 93.4738 5.32586C92.3954 5.32586 91.6569 6.24207 91.6569 7.53871C91.6569 8.83534 92.3954 9.73548 93.4738 9.73548Z" fill="black"/>
<path d="M104.13 2.80766H98.8342V0.731445H107.033V2.56387L101.759 9.40066H107.033V11.4742H98.8342V9.62837L104.13 2.80766Z" fill="black"/>
<path d="M115.127 11.6589C114.311 11.6589 113.602 11.308 113.355 10.6195C112.954 11.2008 112.285 11.6589 111.06 11.6589C109.505 11.6589 108.32 10.6355 108.32 9.20228C108.32 7.44755 109.925 6.68403 111.691 6.68403C112.227 6.68174 112.761 6.75386 113.278 6.89835V6.51526C113.278 5.63119 112.539 5.21863 111.49 5.21863C110.563 5.21551 109.662 5.52716 108.935 6.10269V4.18186C109.834 3.64902 110.864 3.37895 111.908 3.40227C114.156 3.40227 115.464 4.57835 115.464 6.48579V9.43268C115.461 9.50243 115.473 9.57203 115.499 9.63672C115.525 9.7014 115.565 9.75965 115.616 9.80747C115.667 9.85529 115.727 9.89156 115.794 9.9138C115.86 9.93604 115.93 9.94373 115.999 9.93633C116.123 9.93809 116.245 9.90663 116.352 9.84524V11.3401C115.981 11.5573 115.557 11.6676 115.127 11.6589ZM111.753 9.99527C112.047 10.0035 112.339 9.94119 112.604 9.8135C112.87 9.68581 113.1 9.49645 113.278 9.26122V8.30482C112.865 8.17179 112.433 8.10488 111.999 8.10658C111.322 8.10658 110.567 8.35037 110.567 9.06833C110.567 9.62824 111.03 9.99527 111.753 9.99527Z" fill="black"/>
<path d="M117.589 11.4739V3.58697H119.745V4.63981C120.008 4.26053 120.357 3.95006 120.765 3.73463C121.172 3.51921 121.626 3.40516 122.087 3.40212C122.535 3.38784 122.979 3.49691 123.37 3.71747C123.761 3.93804 124.085 4.26167 124.305 4.65321C124.579 4.25522 124.948 3.93221 125.378 3.71367C125.809 3.49513 126.287 3.38802 126.769 3.40212C128.34 3.40212 129.48 4.37995 129.48 6.18023V11.4739H127.246V6.77497C127.246 5.8909 126.769 5.40065 125.967 5.40065C125.724 5.39619 125.482 5.44141 125.257 5.53353C125.032 5.62566 124.828 5.76276 124.658 5.93644V11.4739H122.41V6.75889C122.41 5.8909 121.918 5.40065 121.131 5.40065C120.888 5.39308 120.645 5.43987 120.422 5.53764C120.198 5.6354 119.999 5.78169 119.839 5.96591V11.4739H117.589Z" fill="black"/>
<path d="M132.434 -7.30279e-05C132.682 0.00363394 132.924 0.0808219 133.128 0.221765C133.333 0.362707 133.491 0.561099 133.583 0.79194C133.675 1.02278 133.697 1.27574 133.645 1.51895C133.594 1.76216 133.472 1.98474 133.295 2.15863C133.117 2.33252 132.893 2.44995 132.649 2.49612C132.405 2.5423 132.152 2.51514 131.924 2.41809C131.695 2.32103 131.501 2.15842 131.364 1.95073C131.228 1.74304 131.156 1.49958 131.157 1.25102C131.157 1.08423 131.189 0.918993 131.253 0.765095C131.318 0.611197 131.412 0.471775 131.531 0.355096C131.65 0.238418 131.791 0.146859 131.946 0.0858492C132.101 0.0248394 132.267 -0.00437893 132.434 -7.30279e-05ZM133.574 11.474H131.326V3.58709H133.574V11.474Z" fill="black"/>
<path d="M135.485 11.4743V3.58731H137.641V4.65891C137.915 4.2689 138.28 3.95131 138.703 3.7334C139.127 3.51549 139.597 3.40377 140.074 3.40782C141.644 3.40782 142.814 4.38565 142.814 6.23148V11.4743H140.566V6.91998C140.566 5.88321 140.031 5.39295 139.134 5.39295C138.873 5.38311 138.612 5.42995 138.37 5.53028C138.128 5.63061 137.91 5.78207 137.732 5.97429V11.4662L135.485 11.4743Z" fill="black"/>
<path d="M73.1244 20.3413C67.3446 20.3413 62.9349 24.2446 62.9349 30.1598C62.9349 36.075 67.3312 39.9783 73.1244 39.9783C78.9175 39.9783 83.3353 36.075 83.3353 30.1598C83.3353 24.2446 78.9041 20.3413 73.1244 20.3413ZM73.1244 36C70.0204 36 67.8557 33.5219 67.8557 30.1598C67.8557 26.7977 70.0338 24.3223 73.1244 24.3223C76.2149 24.3223 78.4011 26.7896 78.4011 30.1598C78.4011 33.53 76.2604 36 73.1244 36Z" fill="black"/>
<path d="M88.6795 20.4087H91.9172C90.9914 21.349 89.9291 22.943 89.5839 24.2905C90.4776 24.5343 91.5159 25.2094 91.5159 26.5248C91.5159 27.8965 90.3439 28.9359 88.824 28.9359C88.4534 28.949 88.084 28.8856 87.7389 28.7497C87.3938 28.6139 87.0802 28.4084 86.8178 28.1461C86.5553 27.8838 86.3495 27.5703 86.2131 27.2251C86.0768 26.8798 86.0128 26.5101 86.0251 26.139C86.0251 23.661 87.5985 21.4321 88.6795 20.4087Z" fill="black"/>
<path d="M94.9619 36.5948L101.78 29.241H94.9619V25.6699H107.538V28.7106L100.776 36.0323H107.538V39.6489H94.9619V36.5948Z" fill="black"/>
<path d="M112.751 19.2031C114.212 19.2031 115.362 20.2319 115.362 21.5472C115.362 22.8626 114.222 23.8914 112.751 23.8914C111.279 23.8914 110.171 22.8948 110.171 21.5472C110.171 20.1997 111.314 19.2031 112.751 19.2031Z" fill="black"/>
<path d="M115.095 25.6699H110.473V39.6489H115.095V25.6699Z" fill="black"/>
<path d="M119.892 39.6492V28.6225H116.992V25.6595H124.299V27.5348C124.823 26.8392 125.501 26.2752 126.28 25.8874C127.059 25.4996 127.917 25.2987 128.787 25.3005C130.85 25.3005 132.265 26.2409 132.993 27.5134C133.535 26.8013 134.239 26.229 135.047 25.8441C135.854 25.4593 136.742 25.2729 137.636 25.3005C140.681 25.3005 142.845 27.0472 142.845 30.1763V39.6197H138.227V31.3658C138.227 29.9379 137.357 29.1101 135.95 29.1101C135.112 29.0777 134.295 29.3748 133.673 29.9379V39.6251H129.054V31.3658C129.054 29.9379 128.185 29.1101 126.799 29.1101C125.966 29.0763 125.152 29.364 124.524 29.9138V39.6492H119.892Z" fill="black"/>
<path d="M151.874 39.6489H147.253V28.6222H144.341V25.6753H151.874V39.6489Z" fill="black"/>
<path d="M149.42 19.2031C150.881 19.2031 152.032 20.2319 152.032 21.5472C152.032 22.8626 150.892 23.8914 149.42 23.8914C147.949 23.8914 146.841 22.8948 146.841 21.5472C146.841 20.1997 147.973 19.2031 149.42 19.2031Z" fill="black"/>
<path d="M154.798 36.5948L161.619 29.241H154.798V25.6699H167.375V28.7106L160.613 36.0323H167.375V39.6489H154.798V36.5948Z" fill="black"/>
<path d="M170.307 39.6492V25.6702H174.704V27.5455C175.256 26.8425 175.962 26.2756 176.767 25.8883C177.572 25.501 178.456 25.3036 179.349 25.3112C182.394 25.3112 184.537 27.0579 184.537 30.2326V39.6492H179.916V31.6417C179.916 29.9486 178.99 29.1101 177.305 29.1101C176.87 29.0893 176.435 29.1548 176.025 29.3029C175.616 29.4509 175.239 29.6785 174.918 29.9727V39.6492H170.307Z" fill="black"/>
<path d="M193.566 39.6489H188.945V28.6222H186.044V25.6753H193.566V39.6489Z" fill="black"/>
<path d="M191.12 19.2031C192.581 19.2031 193.731 20.2319 193.731 21.5472C193.731 22.8626 192.594 23.8914 191.12 23.8914C189.645 23.8914 188.543 22.8948 188.543 21.5472C188.543 20.1997 189.68 19.2031 191.12 19.2031Z" fill="black"/>
<path d="M197.089 20.0654H201.71V30.5912H203.629L206.867 25.6699H211.721L207.439 32.2066L212.087 39.6488H206.955L203.586 34.1087H201.713V39.6488H197.089V20.0654Z" fill="black"/>
<path d="M219.832 39.6489H215.213V28.6222H212.313V25.6753H219.832V39.6489Z" fill="black"/>
<path d="M217.388 19.2031C218.852 19.2031 220 20.2319 220 21.5472C220 22.8626 218.863 23.8914 217.388 23.8914C215.914 23.8914 214.812 22.8948 214.812 21.5472C214.812 20.1997 215.938 19.2031 217.388 19.2031Z" fill="black"/>
<path d="M24.3499 39.1456C24.3499 39.4322 24.3499 39.7135 24.3338 39.9975C10.8879 39.9895 0 29.2012 0 15.8839C0 15.5999 0 15.316 0.0160549 15.0347C13.4486 15.04 24.3499 25.8337 24.3499 39.1456Z" fill="#377BE1"/>
<path d="M48.6728 15.8841C48.6728 29.196 37.7849 39.9951 24.3496 39.9951C24.3496 39.7111 24.3496 39.4271 24.3496 39.1431C24.3496 25.8312 35.2348 15.0322 48.6701 15.0322C48.6674 15.3162 48.6728 15.6002 48.6728 15.8841Z" fill="#377BE1"/>
<path d="M24.3498 18.6272C26.101 18.6061 27.8069 18.0669 29.2528 17.0774C30.6987 16.0879 31.82 14.6924 32.4756 13.0664C33.1312 11.4404 33.2918 9.65661 32.9372 7.93945C32.5827 6.2223 31.7288 4.64849 30.4829 3.41605C29.2371 2.18361 27.6551 1.34761 25.9358 1.01323C24.2166 0.678842 22.437 0.861018 20.8209 1.53683C19.2048 2.21264 17.8245 3.3519 16.8535 4.81126C15.8826 6.27062 15.3645 7.98488 15.3644 9.73835C15.3707 10.9129 15.6082 12.0747 16.0633 13.1573C16.5184 14.2399 17.1822 15.222 18.0167 16.0476C18.8512 16.8731 19.8401 17.5259 20.9268 17.9685C22.0134 18.4112 23.1766 18.635 24.3498 18.6272Z" fill="#00CD69"/>
</g>
<defs>
<clipPath id="clip0_4005_87529">
<rect width="220" height="40" fill="white"/>
</clipPath>
</defs>
</svg>
