<svg width="24" height="24" viewBox="0 0 24 24" fill="none" xmlns="http://www.w3.org/2000/svg">
<path d="M1.0469 3.80052L4.24191 0.608924C4.63192 0.218973 5.15392 0 5.70592 0C6.25792 0 6.77993 0.215973 7.16993 0.608924L10.6109 4.04349C11.0009 4.43345 11.2199 4.95838 11.2199 5.51031C11.2199 6.06524 11.0039 6.58418 10.6109 6.97713L7.92293 9.66779C8.53528 11.0944 9.41512 12.3905 10.5149 13.4863C11.6159 14.5932 12.903 15.4661 14.331 16.084L17.019 13.3933C17.409 13.0034 17.931 12.7844 18.483 12.7844C18.7552 12.7834 19.025 12.8367 19.2764 12.9413C19.5278 13.0459 19.7558 13.1995 19.947 13.3933L23.391 16.8279C23.781 17.2178 24 17.7428 24 18.2947C24 18.8496 23.784 19.3686 23.391 19.7615L20.199 22.9531C19.533 23.619 18.615 24 17.673 24C17.478 24 17.289 23.985 17.097 23.952C13.125 23.2981 9.18294 21.1834 5.99992 18.0037C2.81991 14.8181 0.707899 10.8766 0.0478954 6.90214C-0.141106 5.77428 0.236898 4.61342 1.0469 3.80052ZM2.17491 6.54518C2.75991 10.0817 4.66192 13.6093 7.52693 16.4739C10.3919 19.3386 13.917 21.2403 17.454 21.8253C17.898 21.9003 18.354 21.7503 18.678 21.4293L21.813 18.2947L18.489 14.9681L14.895 18.5677L14.868 18.5947L14.22 18.3547C12.2552 17.6324 10.4709 16.4916 8.99096 15.0113C7.51098 13.531 6.37062 11.7466 5.64892 9.78178L5.40892 9.13386L9.03293 5.51331L5.70892 2.18673L2.57391 5.32133C2.2499 5.64529 2.09991 6.10124 2.17491 6.54518Z" fill="#00CD69"/>
</svg>
