<svg width="24" height="24" viewBox="0 0 24 24" fill="none" xmlns="http://www.w3.org/2000/svg">
<path d="M16.1665 2C16.0571 1.99995 15.9487 2.02146 15.8476 2.06331C15.7464 2.10516 15.6545 2.16652 15.5771 2.2439C15.4997 2.32127 15.4383 2.41314 15.3964 2.51425C15.3545 2.61536 15.3329 2.72374 15.3329 2.83319C15.3329 5.29095 13.1806 6.16672 11.1666 6.16672H5.33314C4.44914 6.16672 3.60134 6.51788 2.97625 7.14297C2.35117 7.76805 2 8.61585 2 9.49985L2 11.1666C2.00178 11.6656 2.11617 12.1577 2.33463 12.6063C2.55308 13.055 2.86998 13.4485 3.26169 13.7576L6.2382 20.4008C6.45001 20.8766 6.79516 21.2809 7.23189 21.5647C7.66863 21.8485 8.17824 21.9997 8.69909 22C9.11337 21.9994 9.52093 21.8953 9.88472 21.6971C10.2485 21.4989 10.557 21.2129 10.7821 20.8651C11.0072 20.5174 11.1419 20.1188 11.1737 19.7058C11.2056 19.2927 11.1338 18.8783 10.9647 18.5001L9.13228 14.4998H11.1666C13.1806 14.4998 15.3329 15.3755 15.3329 17.8329C15.3305 17.9439 15.3503 18.0542 15.3911 18.1574C15.4319 18.2606 15.4929 18.3546 15.5706 18.434C15.6482 18.5133 15.7409 18.5763 15.8432 18.6193C15.9455 18.6624 16.0553 18.6845 16.1663 18.6845C16.2773 18.6845 16.3872 18.6624 16.4895 18.6193C16.5918 18.5763 16.6845 18.5133 16.7621 18.434C16.8397 18.3546 16.9007 18.2606 16.9415 18.1574C16.9823 18.0542 17.0021 17.9439 16.9997 17.8329V2.83319C16.9997 2.72377 16.9782 2.61543 16.9363 2.51434C16.8944 2.41325 16.833 2.3214 16.7557 2.24403C16.6783 2.16667 16.5865 2.10529 16.4854 2.06342C16.3843 2.02155 16.2759 2 16.1665 2V2ZM9.4479 19.1821C9.50278 19.3068 9.52575 19.4431 9.51472 19.5789C9.5037 19.7147 9.45904 19.8456 9.38477 19.9598C9.3105 20.074 9.20896 20.1679 9.08932 20.233C8.96968 20.2981 8.8357 20.3325 8.69948 20.3328C8.50075 20.3327 8.30634 20.2748 8.1399 20.1662C7.97346 20.0576 7.84217 19.903 7.762 19.7211L5.42064 14.4998H7.29912L9.4479 19.1821ZM15.3333 14.1666C14.1429 13.2492 12.6689 12.7774 11.167 12.833H5.33314C4.89119 12.833 4.46734 12.6574 4.15483 12.3449C3.84233 12.0324 3.66676 11.6086 3.66676 11.1666V9.49985C3.66676 9.05787 3.84232 8.63398 4.15481 8.32141C4.46731 8.00884 4.89115 7.83319 5.33314 7.83309H11.1666C12.6678 7.89023 14.1417 7.42039 15.3329 6.50499L15.3333 14.1666ZM21.9168 14.8763C21.868 14.9743 21.8003 15.0617 21.7177 15.1335C21.6351 15.2053 21.5391 15.2602 21.4353 15.2949C21.3315 15.3296 21.2218 15.3435 21.1126 15.3358C21.0034 15.3282 20.8968 15.299 20.7989 15.2501V15.2501L19.1321 14.4169C18.9343 14.3182 18.7838 14.1448 18.7138 13.9351C18.6437 13.7254 18.6599 13.4964 18.7587 13.2986C18.8574 13.1008 19.0308 12.9503 19.2405 12.8803C19.4502 12.8102 19.6792 12.8264 19.877 12.9252L21.543 13.7576C21.7398 13.8563 21.8896 14.029 21.9595 14.2378C22.0295 14.4466 22.014 14.6746 21.9164 14.872L21.9168 14.8763ZM18.7575 7.37646C18.7085 7.27851 18.6793 7.17187 18.6715 7.06263C18.6637 6.95339 18.6775 6.84369 18.7122 6.73979C18.7468 6.6359 18.8016 6.53985 18.8734 6.45714C18.9452 6.37442 19.0325 6.30666 19.1305 6.25773V6.25773L20.7973 5.42454C20.9951 5.32576 21.2241 5.30961 21.4338 5.37964C21.6435 5.44967 21.8168 5.60015 21.9156 5.79797C22.0144 5.99579 22.0306 6.22475 21.9605 6.43448C21.8905 6.64421 21.74 6.81753 21.5422 6.91631L19.8762 7.74989C19.7783 7.79896 19.6717 7.82824 19.5624 7.83607C19.4532 7.84389 19.3435 7.83011 19.2396 7.7955C19.1357 7.76089 19.0396 7.70613 18.9569 7.63436C18.8742 7.56259 18.8064 7.47522 18.7575 7.37724V7.37646ZM18.6661 10.333C18.6661 10.2236 18.6876 10.1152 18.7295 10.0141C18.7714 9.91299 18.8328 9.82112 18.9103 9.74375C18.9877 9.66638 19.0796 9.60501 19.1807 9.56316C19.2818 9.52132 19.3902 9.4998 19.4997 9.49985H21.1664C21.3843 9.50457 21.5917 9.59445 21.7442 9.75022C21.8966 9.906 21.982 10.1153 21.982 10.3332C21.982 10.5512 21.8966 10.7605 21.7442 10.9162C21.5917 11.072 21.3843 11.1619 21.1664 11.1666H19.4997C19.3902 11.1666 19.2818 11.1451 19.1807 11.1032C19.0796 11.0613 18.9877 10.9999 18.9104 10.9224C18.833 10.845 18.7716 10.7531 18.7298 10.652C18.6879 10.5509 18.6664 10.4425 18.6665 10.333H18.6661Z" fill="#377BE1"/>
</svg>
