<svg width="24" height="24" viewBox="0 0 24 24" fill="none" xmlns="http://www.w3.org/2000/svg">
<path d="M12.5828 21.9857H11.412C11.0636 22.0167 10.7125 21.9756 10.3807 21.8649C10.0158 21.7218 9.71531 21.451 9.53514 21.103C9.4013 20.7817 9.32883 20.4382 9.32145 20.0902C9.30363 19.7456 9.25383 19.4035 9.17275 19.0681C9.14642 19.0416 9.11408 19.0219 9.0785 19.0106C9.04291 18.9993 9.00516 18.9967 8.96836 19.0031C8.686 19.1857 8.41879 19.3908 8.1693 19.6163C7.91557 19.8551 7.61926 20.0442 7.29584 20.1738C6.924 20.2954 6.5204 20.2756 6.1623 20.1181C5.85232 19.9571 5.57752 19.736 5.35393 19.4677L4.51767 18.6407C4.25178 18.4171 4.03378 18.1422 3.87661 17.8323C3.71933 17.4709 3.69945 17.0645 3.8208 16.6895C3.94668 16.3718 4.13292 16.0816 4.36909 15.8346C4.60147 15.5786 4.80978 15.3018 4.99155 15.0077C4.99553 14.9685 4.98904 14.9289 4.97272 14.8929C4.9564 14.857 4.93084 14.8261 4.89866 14.8033C4.57045 14.7383 4.23839 14.6948 3.90451 14.6732C3.55653 14.6658 3.21294 14.5933 2.89165 14.4595C2.5405 14.2761 2.26688 13.9728 2.12049 13.6047C2.01874 13.2741 1.98091 12.9273 2.00899 12.5826V11.4026C1.98091 11.0579 2.01874 10.711 2.12049 10.3805C2.26437 10.0131 2.53902 9.71195 2.89165 9.53497C3.20717 9.39217 3.54891 9.31624 3.89521 9.31197C4.23947 9.29719 4.58161 9.25054 4.91726 9.1726C4.94539 9.14718 4.96691 9.11525 4.97987 9.07962C4.99282 9.04399 4.99678 9.00573 4.99155 8.96818C4.80804 8.68349 4.60311 8.41325 4.37839 8.15982C4.13825 7.91068 3.94881 7.61718 3.8208 7.2957C3.69945 6.92069 3.71933 6.51426 3.87661 6.15284C4.03378 5.84301 4.25178 5.56806 4.51767 5.34447L5.35393 4.51752C5.57904 4.25445 5.84971 4.03413 6.15299 3.86711C6.51442 3.70983 6.92083 3.69001 7.29584 3.81136C7.61776 3.93851 7.91146 4.12797 8.16 4.36886C8.41602 4.60124 8.69285 4.80963 8.98697 4.9914C9.02447 4.99212 9.06164 4.9841 9.09551 4.96797C9.12938 4.95185 9.15898 4.92805 9.18205 4.89847C9.25658 4.56848 9.30322 4.2328 9.32145 3.89498C9.32883 3.54701 9.4013 3.2035 9.53514 2.88221C9.71531 2.53415 10.0158 2.26339 10.3807 2.12031C10.7145 2.01893 11.0643 1.9811 11.412 2.0088H12.5828C12.9305 1.9811 13.2804 2.01893 13.6141 2.12031C13.979 2.26339 14.2795 2.53415 14.4597 2.88221C14.5946 3.19993 14.6671 3.5406 14.6734 3.8857C14.6903 4.23035 14.7401 4.5726 14.8221 4.90778C14.8474 4.93567 14.8797 4.95637 14.9156 4.96779C14.9515 4.97921 14.9897 4.98095 15.0265 4.97281C15.3082 4.79273 15.5754 4.5908 15.8255 4.36886C16.0763 4.124 16.3731 3.93134 16.6989 3.80208C17.0739 3.68072 17.4804 3.70055 17.8419 3.85782C18.1481 4.02442 18.4219 4.24473 18.6502 4.50823L19.4772 5.33518C19.7431 5.55878 19.9611 5.83371 20.1182 6.14354C20.2786 6.50381 20.3017 6.91027 20.1832 7.28641C20.0533 7.60416 19.8642 7.89427 19.6258 8.14123C19.3926 8.39992 19.1842 8.67989 19.0033 8.97747C19.0018 9.01509 19.0095 9.05251 19.0256 9.0865C19.0418 9.12049 19.066 9.15004 19.0962 9.1726C19.4237 9.24177 19.7561 9.28526 20.0903 9.30268C20.4385 9.30803 20.7825 9.38059 21.1032 9.51638C21.4543 9.69977 21.728 10.0031 21.8744 10.3712C21.9761 10.7017 22.0139 11.0486 21.9859 11.3933V12.5733C22.0139 12.918 21.9761 13.2649 21.8744 13.5954C21.728 13.9635 21.4543 14.2668 21.1032 14.4502C20.7819 14.584 20.4383 14.6565 20.0903 14.6639C19.7497 14.6848 19.4112 14.7314 19.0776 14.8033C19.0509 14.8317 19.0306 14.8654 19.0178 14.9023C19.005 14.9391 19.0001 14.9781 19.0033 15.017C19.1894 15.2969 19.3942 15.5639 19.6165 15.8161C19.8566 16.0671 20.0487 16.3599 20.1832 16.6802C20.3088 17.0648 20.2857 17.4826 20.1182 17.8509C19.9611 18.1607 19.7431 18.4357 19.4772 18.6593L18.6502 19.4862C18.4226 19.7505 18.1487 19.9709 17.8419 20.1366C17.4804 20.2939 17.0739 20.3137 16.6989 20.1924C16.377 20.0652 16.0834 19.8758 15.8348 19.6349C15.5774 19.4043 15.3007 19.196 15.0079 19.0124C14.9703 19.0109 14.9329 19.0186 14.8989 19.0347C14.8649 19.0509 14.8354 19.0751 14.8128 19.1053C14.7391 19.4354 14.6924 19.771 14.6734 20.1088C14.666 20.4567 14.5935 20.8003 14.4597 21.1215C14.2795 21.4696 13.979 21.7404 13.6141 21.8834C13.281 21.9879 12.93 22.0227 12.5828 21.9857ZM8.99627 17.6C9.24731 17.6024 9.4946 17.6613 9.71979 17.7723C9.94498 17.8833 10.1423 18.0435 10.2971 18.2412C10.5877 18.7627 10.7291 19.3542 10.7059 19.9508C10.718 20.1228 10.7428 20.2936 10.7802 20.4618C10.8018 20.5119 10.8416 20.5517 10.8917 20.5733C11.0649 20.5863 11.2389 20.5863 11.412 20.5733H12.5828C12.756 20.5866 12.9299 20.5866 13.1031 20.5733C13.1536 20.5492 13.1957 20.5103 13.2239 20.4618C13.2569 20.2963 13.2787 20.1286 13.289 19.9601C13.2663 19.3594 13.411 18.7643 13.707 18.2412C13.8797 18.0127 14.1103 17.8346 14.375 17.7251C14.6396 17.6157 14.9287 17.5789 15.2123 17.6186C15.7869 17.7849 16.3045 18.1064 16.7082 18.5478C16.8373 18.666 16.9774 18.7717 17.1264 18.8637C17.1511 18.8753 17.178 18.8813 17.2053 18.8813C17.2326 18.8813 17.2596 18.8753 17.2843 18.8637C17.4145 18.7529 17.5386 18.635 17.656 18.5106L18.4922 17.6837C18.6198 17.5662 18.7379 17.4388 18.8453 17.3027C18.8638 17.2517 18.8638 17.1958 18.8453 17.1448C18.8453 17.089 18.6688 16.9125 18.5294 16.7359C17.9626 16.0391 17.6746 15.6953 17.6003 15.24C17.5598 14.955 17.5961 14.6643 17.7055 14.3981C17.815 14.1318 17.9935 13.8996 18.2227 13.7255C18.7403 13.4333 19.3293 13.2917 19.9232 13.3166C20.0982 13.3051 20.2721 13.2802 20.4434 13.2423C20.4679 13.2304 20.4898 13.2135 20.5074 13.1927C20.525 13.1719 20.538 13.1477 20.5456 13.1215C20.5587 12.9514 20.5587 12.7806 20.5456 12.6105V11.4304C20.5587 11.2603 20.5587 11.0895 20.5456 10.9194C20.5275 10.868 20.4911 10.825 20.4434 10.7986C20.2747 10.7658 20.104 10.7441 19.9325 10.7336C19.3351 10.753 18.7437 10.6084 18.2227 10.3155C17.9943 10.1428 17.8162 9.91217 17.7068 9.64754C17.5973 9.38291 17.5605 9.09383 17.6003 8.81023C17.656 8.35494 17.944 8.00186 18.5294 7.31429C18.6423 7.1808 18.7477 7.04122 18.8453 6.89617C18.8638 6.84513 18.8638 6.78924 18.8453 6.7382C18.7379 6.60208 18.6198 6.47471 18.4922 6.35726L17.656 5.53031C17.5386 5.40593 17.4145 5.28806 17.2843 5.17722C17.2578 5.16598 17.2294 5.16018 17.2007 5.16018C17.1719 5.16018 17.1435 5.16598 17.1171 5.17722C16.9786 5.27228 16.8451 5.37463 16.7175 5.48385C16.0206 6.05992 15.6676 6.34796 15.2123 6.413C14.9286 6.45373 14.6392 6.41743 14.3744 6.3079C14.1096 6.19838 13.8791 6.01966 13.707 5.79047C13.4153 5.2724 13.2707 4.68442 13.289 4.09011C13.2789 3.91542 13.2571 3.74159 13.2239 3.56979C13.1957 3.52132 13.1536 3.48246 13.1031 3.45828H10.8917C10.843 3.48513 10.8015 3.5234 10.7709 3.56979C10.7709 3.62554 10.7709 3.85782 10.7059 4.08081C10.7291 4.67742 10.5877 5.26892 10.2971 5.79047C10.1229 6.01968 9.89065 6.19822 9.6244 6.30766C9.35815 6.4171 9.06759 6.45347 8.78258 6.413C8.32729 6.34796 7.9834 6.06922 7.28654 5.48385C7.15557 5.36786 7.01582 5.26224 6.86846 5.16794C6.84375 5.15633 6.81682 5.15031 6.78952 5.15031C6.76222 5.15031 6.73518 5.15633 6.71047 5.16794C6.58024 5.27877 6.45625 5.39663 6.33889 5.52101L5.50263 6.34796C5.37505 6.46541 5.25698 6.59279 5.14955 6.72891C5.1353 6.7806 5.1353 6.83518 5.14955 6.88687C5.24302 7.02653 5.3454 7.15999 5.45613 7.28641C6.0322 7.99257 6.32024 8.33635 6.38528 8.80093C6.42105 9.08519 6.3815 9.37386 6.27061 9.63803C6.15973 9.9022 5.98146 10.1326 5.75352 10.3062C5.23545 10.5979 4.6474 10.7425 4.05309 10.7243C3.87799 10.7296 3.70384 10.7513 3.53282 10.7893C3.48514 10.8157 3.44879 10.8587 3.43063 10.9101C3.41753 11.0802 3.41753 11.2511 3.43063 11.4212V12.6012C3.4179 12.7744 3.4179 12.9483 3.43063 13.1215C3.4399 13.1471 3.45469 13.1704 3.47396 13.1897C3.49323 13.2089 3.5165 13.2237 3.54212 13.233C3.7098 13.2721 3.88097 13.2939 4.05309 13.2981C4.6474 13.2798 5.23545 13.4244 5.75352 13.7162C5.98222 13.8912 6.16087 14.1232 6.27175 14.389C6.38263 14.6548 6.42179 14.945 6.38528 15.2307C6.32024 15.686 6.0322 16.0298 5.45613 16.7266C5.3418 16.8557 5.23629 16.9923 5.14025 17.1355C5.126 17.1871 5.126 17.2417 5.14025 17.2934C5.24768 17.4295 5.36575 17.5569 5.49333 17.6744L6.32959 18.5013C6.44444 18.6315 6.57198 18.7498 6.71047 18.8544C6.73518 18.866 6.76222 18.872 6.78952 18.872C6.81682 18.872 6.84375 18.866 6.86846 18.8544C7.00698 18.7594 7.1404 18.657 7.26805 18.5478C7.97421 17.9717 8.31799 17.693 8.77328 17.6186L8.99627 17.6ZM11.9974 16.4107C10.8276 16.4083 9.70649 15.9425 8.87933 15.1153C8.05217 14.2882 7.58639 13.167 7.58393 11.9972C7.58393 10.8267 8.04892 9.70411 8.87661 8.87642C9.7043 8.04873 10.8269 7.58374 11.9974 7.58374C13.168 7.58374 14.2905 8.04873 15.1182 8.87642C15.9459 9.70411 16.4109 10.8267 16.4109 11.9972C16.4085 13.167 15.9427 14.2882 15.1155 15.1153C14.2884 15.9425 13.1672 16.4083 11.9974 16.4107ZM11.9974 8.97747C11.1965 8.97747 10.4284 9.29562 9.86213 9.86194C9.29582 10.4283 8.97767 11.1963 8.97767 11.9972C8.98012 12.7974 9.29907 13.564 9.86485 14.1298C10.4306 14.6956 11.1973 15.0145 11.9974 15.017C12.7976 15.0145 13.5642 14.6956 14.13 14.1298C14.6958 13.564 15.0147 12.7974 15.0172 11.9972C15.0172 11.6007 14.939 11.208 14.7873 10.8416C14.6355 10.4752 14.4131 10.1423 14.1327 9.86194C13.8523 9.58153 13.5193 9.35909 13.153 9.20733C12.7866 9.05558 12.394 8.97747 11.9974 8.97747Z" fill="#377BE1"/>
</svg>
