<svg width="24" height="24" viewBox="0 0 24 24" fill="none" xmlns="http://www.w3.org/2000/svg">
<path d="M20.1217 9.879L17.2125 6.96975C17.071 6.83313 16.8815 6.75754 16.6849 6.75924C16.4883 6.76095 16.3001 6.83983 16.1611 6.97889C16.022 7.11794 15.9432 7.30605 15.9414 7.5027C15.9397 7.69935 16.0153 7.8888 16.1519 8.03025L19.0612 10.9395C19.1476 11.0276 19.2232 11.1258 19.2862 11.232C19.275 11.232 19.266 11.226 19.2547 11.226L7.4917 11.25C7.29279 11.25 7.10202 11.329 6.96137 11.4697C6.82072 11.6103 6.7417 11.8011 6.7417 12C6.7417 12.1989 6.82072 12.3897 6.96137 12.5303C7.10202 12.671 7.29279 12.75 7.4917 12.75L19.2502 12.726C19.2712 12.726 19.2885 12.7155 19.3087 12.714C19.2422 12.8409 19.1578 12.9576 19.0582 13.0605L16.1489 15.9697C16.0773 16.0389 16.0202 16.1217 15.9809 16.2132C15.9416 16.3047 15.9209 16.4031 15.92 16.5027C15.9191 16.6023 15.9381 16.701 15.9758 16.7932C16.0135 16.8854 16.0692 16.9691 16.1397 17.0395C16.2101 17.11 16.2938 17.1657 16.386 17.2034C16.4782 17.2411 16.5769 17.2601 16.6765 17.2592C16.7761 17.2583 16.8745 17.2376 16.966 17.1983C17.0575 17.159 17.1403 17.1019 17.2094 17.0303L20.1187 14.121C20.6811 13.5584 20.9971 12.7955 20.9971 12C20.9971 11.2045 20.6811 10.4416 20.1187 9.879H20.1217Z" fill="#377BE1"/>
<path d="M8.25 19.5H6.75C6.15326 19.5 5.58097 19.2629 5.15901 18.841C4.73705 18.419 4.5 17.8467 4.5 17.25V6.75C4.5 6.15326 4.73705 5.58097 5.15901 5.15901C5.58097 4.73705 6.15326 4.5 6.75 4.5H8.25C8.44891 4.5 8.63968 4.42098 8.78033 4.28033C8.92098 4.13968 9 3.94891 9 3.75C9 3.55109 8.92098 3.36032 8.78033 3.21967C8.63968 3.07902 8.44891 3 8.25 3H6.75C5.7558 3.00119 4.80267 3.39666 4.09966 4.09966C3.39666 4.80267 3.00119 5.7558 3 6.75L3 17.25C3.00119 18.2442 3.39666 19.1973 4.09966 19.9003C4.80267 20.6033 5.7558 20.9988 6.75 21H8.25C8.44891 21 8.63968 20.921 8.78033 20.7803C8.92098 20.6397 9 20.4489 9 20.25C9 20.0511 8.92098 19.8603 8.78033 19.7197C8.63968 19.579 8.44891 19.5 8.25 19.5Z" fill="#377BE1"/>
</svg>
