<svg width="24" height="24" viewBox="0 0 24 24" fill="none" xmlns="http://www.w3.org/2000/svg">
<path fill-rule="evenodd" clip-rule="evenodd" d="M10.8677 1.20001H13.1755C14.7389 1.20001 16.2029 1.20001 17.419 1.2976C18.605 1.39278 19.7254 1.58894 20.4828 2.09503C21.0627 2.48249 21.5605 2.98037 21.948 3.56025C22.4306 4.28246 22.6424 5.10971 22.7439 6.10706C22.843 7.08171 22.843 8.30317 22.843 9.84918V9.9383C22.843 11.4843 22.843 12.7058 22.7439 13.6804C22.6424 14.6778 22.4306 15.505 21.948 16.2272C21.5605 16.8071 21.0627 17.305 20.4828 17.6925C19.8106 18.1416 18.8627 18.342 17.8602 18.4489C16.9596 18.545 15.9077 18.5742 14.7736 18.5833L13.6316 20.8672C12.9683 22.1939 11.075 22.1939 10.4117 20.8672L9.26973 18.5833C8.13562 18.5742 7.0837 18.545 6.18304 18.4489C5.18053 18.342 4.23266 18.1416 3.56043 17.6925C2.98055 17.305 2.48267 16.8071 2.09521 16.2272C1.61265 15.505 1.40079 14.6778 1.29933 13.6804C1.20018 12.7058 1.20019 11.4843 1.2002 9.9383V9.84918C1.20019 8.30317 1.20018 7.08171 1.29933 6.10706C1.40079 5.10971 1.61265 4.28246 2.09521 3.56025C2.48267 2.98037 2.98055 2.48249 3.56043 2.09503C4.31785 1.58894 5.43818 1.39278 6.62422 1.2976C7.84034 1.20001 9.30434 1.20001 10.8677 1.20001ZM6.75221 2.89247C5.57004 2.98734 4.82963 3.17128 4.44934 3.42538C4.04417 3.69611 3.69629 4.04399 3.42556 4.44916C3.14794 4.86465 2.9797 5.39815 2.89111 6.26899C2.80116 7.15321 2.8002 8.29331 2.8002 9.89374C2.8002 11.4942 2.80116 12.6343 2.89111 13.5185C2.9797 14.3893 3.14794 14.9228 3.42556 15.3383C3.69629 15.7435 4.04417 16.0914 4.44934 16.3621C4.77653 16.5807 5.38603 16.7548 6.35271 16.8579C7.29185 16.9581 8.44499 16.9812 9.76929 16.9861C10.0945 16.9873 10.3738 17.1825 10.4978 17.4618L11.8428 20.1517C11.9165 20.2991 12.1268 20.2991 12.2005 20.1517L13.5455 17.4618C13.6695 17.1825 13.9488 16.9873 14.274 16.9861C15.5983 16.9812 16.7514 16.9581 17.6905 16.8579C18.6572 16.7548 19.2667 16.5807 19.5939 16.3621C19.999 16.0914 20.3469 15.7435 20.6176 15.3383C20.8953 14.9228 21.0635 14.3893 21.1521 13.5185C21.242 12.6343 21.243 11.4942 21.243 9.89374C21.243 8.29331 21.242 7.15321 21.1521 6.26899C21.0635 5.39815 20.8953 4.86465 20.6176 4.44916C20.3469 4.04399 19.999 3.69611 19.5939 3.42538C19.2136 3.17128 18.4732 2.98734 17.291 2.89247C16.1457 2.80056 14.7436 2.80001 13.1493 2.80001H10.8939C9.29956 2.80001 7.89748 2.80056 6.75221 2.89247Z" fill="#377BE1"/>
<circle cx="16.1281" cy="9.87663" r="1.57536" fill="#377BE1"/>
<circle cx="11.9269" cy="9.87663" r="1.57536" fill="#377BE1"/>
<circle cx="7.95866" cy="9.87663" r="1.57536" fill="#377BE1"/>
</svg>
