<svg width="24" height="24" viewBox="0 0 24 24" fill="none" xmlns="http://www.w3.org/2000/svg">
<path d="M20.5645 7.4946C20.2852 6.81075 19.8825 6.19105 19.379 5.67019C18.875 5.14778 18.2808 4.73262 17.6288 4.4473C16.9526 4.15027 16.2274 3.99823 15.4952 4.00002C14.468 4.00002 13.4658 4.29747 12.5948 4.85934C12.3865 4.99375 12.1886 5.14137 12.001 5.30222C11.8135 5.14137 11.6156 4.99375 11.4072 4.85934C10.5363 4.29747 9.53408 4.00002 8.50688 4.00002C7.76721 4.00002 7.05046 4.14985 6.3733 4.4473C5.71906 4.73375 5.12941 5.14578 4.6231 5.67019C4.11887 6.19046 3.71608 6.8103 3.43755 7.4946C3.14793 8.20629 3 8.96206 3 9.73986C3 10.4736 3.14168 11.2382 3.42297 12.016C3.65841 12.666 3.99595 13.3402 4.42725 14.021C5.11066 15.0985 6.05035 16.2222 7.21715 17.3614C9.1507 19.2497 11.0655 20.5541 11.1468 20.607L11.6406 20.9419C11.8593 21.0895 12.1406 21.0895 12.3594 20.9419L12.8532 20.607C12.9345 20.5519 14.8472 19.2497 16.7828 17.3614C17.9496 16.2222 18.8893 15.0985 19.5727 14.021C20.004 13.3402 20.3437 12.666 20.577 12.016C20.8583 11.2382 21 10.4736 21 9.73986C21.0021 8.96206 20.8541 8.20629 20.5645 7.4946ZM12.001 19.199C12.001 19.199 4.58351 14.1731 4.58351 9.73986C4.58351 7.4946 6.33997 5.67459 8.50688 5.67459C10.03 5.67459 11.351 6.57358 12.001 7.8868C12.6511 6.57358 13.9721 5.67459 15.4952 5.67459C17.6621 5.67459 19.4185 7.4946 19.4185 9.73986C19.4185 14.1731 12.001 19.199 12.001 19.199Z" fill="#377BE1"/>
</svg>
