<svg width="20" height="20" viewBox="0 0 20 20" fill="none" xmlns="http://www.w3.org/2000/svg">
<path d="M9.95807 4.97925H10.0419C10.0419 7.71774 12.2826 9.95828 15.021 9.95828V10.0421C12.2825 10.0421 10.0419 12.2827 10.0419 15.0213H9.95807C9.95807 12.2827 7.7174 10.0421 4.97888 10.0421V9.95828C7.7174 9.95828 9.95807 7.71774 9.95807 4.97925Z" fill="#86898C"/>
<path d="M15.0209 0C17.7707 0 19.9999 2.22926 19.9999 4.97903C19.9999 7.72892 17.7707 9.95806 15.0209 9.95806V4.97915H10.0419C10.0419 2.22926 12.271 0 15.0209 0Z" fill="#86898C"/>
<path d="M4.97908 0C7.72888 0 9.95804 2.22926 9.95804 4.97903H4.97896V9.95806C2.22905 9.95806 0 7.72892 0 4.97903C0 2.22926 2.22916 0 4.97908 0Z" fill="#86898C"/>
<path d="M15.0209 10.042C17.7707 10.042 19.9999 12.2712 19.9999 15.0209C19.9999 17.7708 17.7707 19.9999 15.0209 19.9999C12.2711 19.9999 10.042 17.7709 10.0419 15.0211H15.0208L15.0209 10.042Z" fill="#86898C"/>
<path d="M9.95815 15.0211C9.95803 17.7709 7.72888 19.9999 4.97919 19.9999C2.22916 19.9999 0 17.7708 0 15.0209C0 12.2712 2.22904 10.0421 4.97896 10.042V15.0211H9.95815Z" fill="#86898C"/>
</svg>
