<svg width="50" height="50" viewBox="0 0 50 50" fill="none" xmlns="http://www.w3.org/2000/svg">
<path d="M49.9989 38.0682C49.8081 38.804 49.6711 39.5594 49.4118 40.2727C48.1819 43.6974 44.7855 46.0194 41.1132 45.9754C37.441 45.9313 34.0974 43.5409 32.9184 40.1044C32.845 39.8891 32.7755 39.6719 32.7168 39.4527C32.5015 38.6543 32.5035 38.6533 31.6982 38.6533H26.3683C26.3683 38.4576 26.3683 38.2834 26.3683 38.1112C26.3449 36.4037 26.4173 34.6865 26.2773 32.9888C25.9329 28.8204 24.0718 25.4035 20.8066 22.8056C17.4171 20.1099 13.5256 19.15 9.26038 19.8291C7.00115 20.1901 4.86478 21.0992 3.03813 22.4769C2.85515 22.6129 2.67316 22.7499 2.4892 22.8829C2.4515 22.9 2.41168 22.9118 2.37081 22.9182L0.536133 20.7087C2.54204 19.0384 4.80236 17.92 7.30241 17.2419V7.90514H4.42074V5H27.7979V7.88166H25.4026C26.5856 11.824 27.7509 15.7096 28.9163 19.5942H35.3509V19.0609C35.3509 16.8476 35.3392 14.6342 35.3509 12.4209C35.3656 10.2682 36.5946 8.63999 38.6396 8.05583C38.9772 7.95798 39.3353 7.93548 39.7159 7.87286V10.7212C39.3901 10.8895 38.9948 10.9894 38.7649 11.2398C38.5212 11.506 38.3059 11.914 38.3001 12.2634C38.2609 14.6871 38.2795 17.1108 38.2795 19.6099C38.5153 19.6099 38.7355 19.6011 38.9547 19.6099C40.1856 19.6696 41.4479 19.5815 42.6407 19.8291C45.1799 20.3545 46.9998 22.6872 47.0546 25.2881C47.0889 26.931 47.0546 28.5758 47.0791 30.2187C47.0917 30.4824 47.1954 30.7335 47.3727 30.9291C48.7219 32.2695 49.6048 34.0079 49.8913 35.8881C49.9138 36.03 49.9588 36.1679 49.9891 36.3079L49.9989 38.0682ZM10.278 16.7292C10.3759 16.7292 10.459 16.7292 10.5353 16.7292C14.3749 16.4895 17.9191 17.4053 21.1725 19.4533C21.2746 19.5322 21.3952 19.5834 21.5228 19.6021C22.9495 19.6128 24.3771 19.6089 25.8331 19.6089C25.7989 19.4484 25.7832 19.3369 25.7509 19.2292C24.6543 15.5723 23.5588 11.915 22.4642 8.2574C22.38 7.97658 22.2577 7.8846 21.9612 7.88558C18.1852 7.89536 14.4092 7.89145 10.6332 7.8934C10.5143 7.89918 10.3957 7.91094 10.278 7.92863V16.7292ZM41.2121 43.0507C42.3701 43.0503 43.502 42.7067 44.4649 42.0633C45.4277 41.4199 46.1783 40.5056 46.6217 39.4358C47.0652 38.3661 47.1817 37.1889 46.9565 36.053C46.7312 34.9171 46.1744 33.8734 45.3563 33.0538C44.5382 32.2342 43.4955 31.6755 42.3601 31.4482C41.2246 31.2208 40.0472 31.3352 38.9766 31.7767C37.906 32.2182 36.9904 32.967 36.3452 33.9287C35.7001 34.8904 35.3544 36.0217 35.3519 37.1797C35.3529 38.7342 35.9704 40.2249 37.069 41.3248C38.1676 42.4246 39.6575 43.0439 41.2121 43.0467V43.0507ZM24.9251 22.5434C24.9114 22.609 24.9006 22.6295 24.9065 22.6413C24.9828 22.7459 25.0562 22.8526 25.1393 22.9514C26.408 24.4391 27.4097 26.1351 28.1003 27.9643C28.2304 28.3126 28.4046 28.4153 28.7696 28.4144C32.8049 28.4007 36.8402 28.399 40.8755 28.4095C41.363 28.4056 41.8501 28.4357 42.3334 28.4995C42.9313 28.5836 43.5213 28.7275 44.1397 28.8508C44.1397 27.8165 44.1397 26.8087 44.1397 25.8008C44.1397 23.7528 42.9401 22.5473 40.9029 22.5463C35.7286 22.5463 30.5543 22.5463 25.38 22.5463L24.9251 22.5434ZM34.6425 31.3714H29.1267C29.204 32.844 29.2784 34.2785 29.3537 35.7266C30.3322 35.7266 31.2902 35.7364 32.2471 35.7139C32.3714 35.7139 32.5749 35.5593 32.5994 35.4448C32.9237 33.9348 33.6268 32.532 34.6425 31.3684V31.3714Z" fill="#377BE1"/>
<path d="M1.10431e-05 34.2502C0.00881747 27.8097 5.27604 22.5454 11.7135 22.5415C18.1657 22.5415 23.4682 27.8537 23.4349 34.2922C23.4016 40.7307 18.1236 45.9979 11.693 45.9764C5.2506 45.9559 -0.00879539 40.6828 1.10431e-05 34.2502ZM11.7135 43.0468C16.5434 43.0468 20.5024 39.0947 20.5053 34.2629C20.5082 29.4311 16.5532 25.474 11.7214 25.4711C6.88958 25.4682 2.93255 29.4232 2.92961 34.255C2.92668 39.0868 6.88174 43.0439 11.7135 43.0468Z" fill="#00CD69"/>
<path d="M42.6701 37.2599C42.6562 37.5488 42.5569 37.827 42.3849 38.0594C42.2128 38.2919 41.9757 38.468 41.7035 38.5657C41.4312 38.6633 41.1362 38.678 40.8556 38.6079C40.575 38.5378 40.3216 38.3861 40.1272 38.1719C39.9329 37.9578 39.8065 37.6908 39.764 37.4047C39.7214 37.1187 39.7647 36.8264 39.8882 36.565C40.0118 36.3035 40.2101 36.0846 40.4582 35.9359C40.7062 35.7872 40.9928 35.7154 41.2816 35.7295C41.6673 35.7521 42.0288 35.925 42.2884 36.2111C42.5481 36.4973 42.6851 36.8738 42.6701 37.2599Z" fill="#377BE1"/>
<path d="M16.1082 34.2521C16.1161 36.6386 14.1346 38.6318 11.7373 38.6504C9.34001 38.669 7.30964 36.6416 7.32627 34.2413C7.34291 31.8411 9.33511 29.8635 11.7226 29.8684C12.8819 29.8799 13.9904 30.3453 14.8104 31.1649C15.6303 31.9845 16.0963 33.0928 16.1082 34.2521ZM11.7285 32.798C11.4394 32.7959 11.1562 32.8796 10.9147 33.0385C10.6732 33.1974 10.4843 33.4245 10.3719 33.6908C10.2594 33.9571 10.2286 34.2509 10.2832 34.5348C10.3378 34.8187 10.4754 35.08 10.6785 35.2856C10.8817 35.4913 11.1414 35.632 11.4246 35.6901C11.7078 35.7481 12.0019 35.7208 12.2696 35.6116C12.5372 35.5024 12.7665 35.3162 12.9283 35.0766C13.0902 34.8371 13.1773 34.5549 13.1786 34.2658C13.1769 33.8801 13.0241 33.5104 12.753 33.236C12.4819 32.9617 12.1142 32.8044 11.7285 32.798Z" fill="#00CD69"/>
</svg>
