<svg width="18" height="19" viewBox="0 0 18 19" fill="none" xmlns="http://www.w3.org/2000/svg">
<path fill-rule="evenodd" clip-rule="evenodd" d="M2.68147 5.63659C3.03802 2.42767 5.75037 0 8.97904 0C12.2077 0 14.9201 2.42767 15.2766 5.63659L15.5346 7.95775C15.6514 8.9761 15.9829 9.95809 16.5071 10.8389L17.133 11.8822C17.3786 12.2916 17.5917 12.6466 17.732 12.9445C17.8741 13.2462 18.0057 13.6155 17.9415 14.0227C17.8755 14.4406 17.6605 14.8204 17.3361 15.0919C17.02 15.3566 16.6355 15.4337 16.3037 15.4671C15.9761 15.5 15.562 15.5 15.0846 15.5L12.5637 15.5C12.344 16.3115 11.9114 17.0432 11.3056 17.5855C10.6538 18.169 9.83668 18.5 8.97904 18.5C8.1214 18.5 7.30426 18.169 6.65251 17.5855C6.04669 17.0432 5.61408 16.3115 5.39437 15.5L2.87352 15.5C2.39605 15.5 1.98196 15.5 1.65438 15.4671C1.32254 15.4337 0.938109 15.3566 0.621986 15.0919C0.297601 14.8204 0.0825461 14.4406 0.0166155 14.0227C-0.047636 13.6155 0.0839958 13.2462 0.2261 12.9445C0.366377 12.6466 0.57944 12.2915 0.825113 11.8821L1.45098 10.8389C1.97519 9.95809 2.30666 8.9761 2.42352 7.95775L2.68147 5.63659ZM6.97668 15.5C7.13878 15.8858 7.37215 16.2165 7.653 16.4679C8.04912 16.8225 8.51587 17 8.97904 17C9.4422 17 9.90896 16.8225 10.3051 16.4679C10.5859 16.2165 10.8193 15.8858 10.9814 15.5H6.97668ZM8.97904 1.5C6.51469 1.5 4.44444 3.35297 4.1723 5.80224L3.91374 8.12876C3.7727 9.3578 3.37265 10.543 2.73999 11.6061L2.13078 12.6215C1.86008 13.0727 1.68729 13.3624 1.58313 13.5836C1.51915 13.7194 1.50427 13.7837 1.50085 13.8027C1.51157 13.8524 1.53719 13.8977 1.57428 13.9324C1.59233 13.9393 1.65513 13.9596 1.80453 13.9746C2.04777 13.9991 2.38513 14 2.91127 14H15.0468C15.5729 14 15.9103 13.9991 16.1535 13.9746C16.303 13.9596 16.3657 13.9393 16.3838 13.9324C16.4209 13.8977 16.4465 13.8524 16.4572 13.8027C16.4538 13.7837 16.4389 13.7194 16.3749 13.5836C16.2708 13.3624 16.098 13.0727 15.8273 12.6215L15.2181 11.6061C14.5854 10.543 14.1854 9.3578 14.0443 8.12876L13.7858 5.80224C13.5136 3.35297 11.4434 1.5 8.97904 1.5Z" fill="#86898C"/>
</svg>
