<svg width="18" height="18" viewBox="0 0 18 18" fill="none" xmlns="http://www.w3.org/2000/svg">
<path d="M17.5645 3.4946C17.2852 2.81075 16.8825 2.19105 16.379 1.67019C15.875 1.14778 15.2808 0.732624 14.6288 0.447304C13.9526 0.150272 13.2274 -0.00176665 12.4952 1.54874e-05C11.468 1.54874e-05 10.4658 0.297474 9.59485 0.859339C9.38649 0.993746 9.18855 1.14137 9.00103 1.30222C8.81351 1.14137 8.61557 0.993746 8.40721 0.859339C7.53628 0.297474 6.53408 1.54874e-05 5.50688 1.54874e-05C4.76721 1.54874e-05 4.05046 0.149846 3.3733 0.447304C2.71906 0.733746 2.12941 1.14578 1.6231 1.67019C1.11887 2.19046 0.716078 2.8103 0.43755 3.4946C0.147934 4.20629 0 4.96206 0 5.73986C0 6.47359 0.141683 7.23816 0.422965 8.01596C0.658409 8.66596 0.995947 9.3402 1.42725 10.021C2.11066 11.0985 3.05035 12.2222 4.21715 13.3614C6.1507 15.2497 8.06551 16.5541 8.14677 16.607L8.64057 16.9419C8.85935 17.0895 9.14063 17.0895 9.35941 16.9419L9.85321 16.607C9.93447 16.5519 11.8472 15.2497 13.7828 13.3614C14.9496 12.2222 15.8893 11.0985 16.5727 10.021C17.004 9.3402 17.3437 8.66596 17.577 8.01596C17.8583 7.23816 18 6.47359 18 5.73986C18.0021 4.96206 17.8541 4.20629 17.5645 3.4946ZM9.00103 15.199C9.00103 15.199 1.58351 10.1731 1.58351 5.73986C1.58351 3.4946 3.33997 1.67459 5.50688 1.67459C7.02997 1.67459 8.35096 2.57358 9.00103 3.8868C9.6511 2.57358 10.9721 1.67459 12.4952 1.67459C14.6621 1.67459 16.4185 3.4946 16.4185 5.73986C16.4185 10.1731 9.00103 15.199 9.00103 15.199Z" fill="#86898C"/>
</svg>
