<svg width="17" height="16" viewBox="0 0 17 16" fill="none" xmlns="http://www.w3.org/2000/svg">
<path d="M10.7712 8.00024C10.7712 9.28908 9.72975 10.3306 8.44092 10.3306C7.15208 10.3306 6.1106 9.28908 6.1106 8.00024C6.1106 6.71141 7.15208 5.66992 8.44092 5.66992C9.72975 5.66992 10.7712 6.71141 10.7712 8.00024Z" stroke="#86898C" stroke-width="1.11588" stroke-linecap="round" stroke-linejoin="round"/>
<path d="M8.44086 13.3832C10.7386 13.3832 12.8802 12.0293 14.3708 9.68593C14.9566 8.76812 14.9566 7.22543 14.3708 6.30762C12.8802 3.96428 10.7386 2.61035 8.44086 2.61035C6.14308 2.61035 4.00153 3.96428 2.51091 6.30762C1.92507 7.22543 1.92507 8.76812 2.51091 9.68593C4.00153 12.0293 6.14308 13.3832 8.44086 13.3832Z" stroke="#86898C" stroke-width="1.11588" stroke-linecap="round" stroke-linejoin="round"/>
</svg>
